<svg width="22" height="24" viewBox="0 0 22 24" fill="none" xmlns="http://www.w3.org/2000/svg">
<path d="M11.3234 24C11.0089 24 10.7539 23.7487 10.7539 23.4386V16.0942C10.7539 15.785 11.0089 15.5336 11.3234 15.5336C11.6378 15.5336 11.8928 15.785 11.8928 16.0942V23.4386C11.8928 23.7487 11.6378 24 11.3234 24Z" fill="#0F0D0D"/>
<path d="M4.20919 1.12112C2.51624 1.12112 1.13891 2.47807 1.13891 4.14588C1.13891 5.81288 2.51624 7.16981 4.20919 7.16981C5.90223 7.16981 7.27956 5.81288 7.27956 4.14588C7.27956 2.47807 5.90223 1.12112 4.20919 1.12112ZM4.20919 8.29175C1.8883 8.29175 0 6.43137 0 4.14588C0 1.85957 1.8883 -2.86102e-06 4.20919 -2.86102e-06C6.53017 -2.86102e-06 8.41846 1.85957 8.41846 4.14588C8.41846 6.43137 6.53017 8.29175 4.20919 8.29175Z" fill="#0F0D0D"/>
<path d="M4.22278 6.00879C3.90839 6.00879 3.65332 5.75748 3.65332 5.44823V2.8184C3.65332 2.50834 3.90839 2.25702 4.22278 2.25702C4.53724 2.25702 4.79223 2.50834 4.79223 2.8184V5.44823C4.79223 5.75748 4.53724 6.00879 4.22278 6.00879Z" fill="#0F0D0D"/>
<path d="M5.5587 4.69434H2.88879C2.57432 4.69434 2.31934 4.44302 2.31934 4.13295C2.31934 3.8237 2.57432 3.5724 2.88879 3.5724H5.5587C5.87317 3.5724 6.12815 3.8237 6.12815 4.13295C6.12815 4.44302 5.87317 4.69434 5.5587 4.69434Z" fill="#0F0D0D"/>
<path d="M17.7904 1.13587C16.0973 1.13587 14.7201 2.4928 14.7201 4.1598C14.7201 5.82761 16.0973 7.18372 17.7904 7.18372C19.4833 7.18372 20.8606 5.82761 20.8606 4.1598C20.8606 2.4928 19.4833 1.13587 17.7904 1.13587ZM17.7904 8.30566C15.4694 8.30566 13.5812 6.4461 13.5812 4.1598C13.5812 1.8743 15.4694 0.0139294 17.7904 0.0139294C20.1113 0.0139294 21.9996 1.8743 21.9996 4.1598C21.9996 6.4461 20.1113 8.30566 17.7904 8.30566Z" fill="#0F0D0D"/>
<path d="M19.126 4.70703H16.4562C16.1417 4.70703 15.8867 4.45572 15.8867 4.14648C15.8867 3.83641 16.1417 3.58509 16.4562 3.58509H19.126C19.4405 3.58509 19.6955 3.83641 19.6955 4.14648C19.6955 4.45572 19.4405 4.70703 19.126 4.70703Z" fill="#0F0D0D"/>
<path d="M11.8928 16.5706V17.7938L18.4374 13.4423V10.6174C18.4374 10.3579 18.2229 10.1466 17.9592 10.1466C17.6956 10.1466 17.4812 10.3579 17.4812 10.6174V12.5782C17.4812 12.8034 17.3461 12.9984 17.1514 13.0873L11.8928 16.5706ZM11.3234 19.4102C11.2317 19.4102 11.1399 19.3881 11.0561 19.3441C10.8701 19.247 10.7539 19.056 10.7539 18.8488V16.272C10.7539 16.086 10.8482 15.9113 11.0056 15.8069L16.3422 12.2714V10.6174C16.3422 9.73945 17.0676 9.02467 17.9592 9.02467C18.8509 9.02467 19.5763 9.73945 19.5763 10.6174V13.7409C19.5763 13.9269 19.4823 14.1015 19.3254 14.2052L11.6419 19.3139C11.546 19.3775 11.4348 19.4102 11.3234 19.4102Z" fill="#0F0D0D"/>
<path d="M4.20824 13.4423L10.7529 17.7938V16.5706L5.49403 13.0873C5.29952 12.9984 5.16448 12.8034 5.16448 12.5782V10.6174C5.16448 10.3579 4.95001 10.1466 4.68632 10.1466C4.42264 10.1466 4.20824 10.3579 4.20824 10.6174V13.4423ZM11.3224 19.4102C11.2108 19.4102 11.0996 19.3775 11.0038 19.3139L3.32018 14.2052C3.16328 14.1015 3.06934 13.9269 3.06934 13.7409V10.6174C3.06934 9.73945 3.7947 9.02467 4.68632 9.02467C5.57795 9.02467 6.30339 9.73945 6.30339 10.6174V12.2714L11.6401 15.8069C11.7974 15.9113 11.8918 16.086 11.8918 16.272V18.8488C11.8918 19.056 11.7755 19.247 11.5895 19.3441C11.5057 19.3881 11.4139 19.4102 11.3224 19.4102Z" fill="#0F0D0D"/>
</svg>
