<svg width="24" height="24" viewBox="0 0 24 24" fill="none" xmlns="http://www.w3.org/2000/svg">
<path d="M12.0002 1.06565C5.97074 1.06565 1.0655 5.97073 1.0655 12.0004C1.0655 18.0292 5.97074 22.9343 12.0002 22.9343C18.0296 22.9343 22.9347 18.0292 22.9347 12.0004C22.9347 5.97073 18.0296 1.06565 12.0002 1.06565ZM12.0002 24C5.38328 24 0 18.6167 0 12.0004C0 5.38327 5.38328 0 12.0002 0C18.617 0 24.0002 5.38327 24.0002 12.0004C24.0002 18.6167 18.617 24 12.0002 24Z" fill="#0F0D0D"/>
<path d="M18.5461 12.3379C18.2519 12.3379 18.0134 12.0992 18.0134 11.8055C18.0134 8.48993 15.3164 5.79286 12.0014 5.79286C8.68631 5.79286 5.98932 8.48993 5.98932 11.8055C5.98932 12.0992 5.75078 12.3379 5.45658 12.3379C5.16238 12.3379 4.92383 12.0992 4.92383 11.8055C4.92383 7.90246 8.09877 4.72799 12.0014 4.72799C15.9038 4.72799 19.0789 7.90246 19.0789 11.8055C19.0789 12.0992 18.8403 12.3379 18.5461 12.3379Z" fill="#0F0D0D"/>
<path d="M4.60952 15.5367H19.393C19.9567 14.4021 20.2533 13.1395 20.2533 11.8646C20.2533 7.3145 16.5515 3.61225 12.0013 3.61225C7.45097 3.61225 3.74909 7.3145 3.74909 11.8646C3.74909 13.1395 4.04577 14.4021 4.60952 15.5367ZM19.716 16.6016H4.28657C4.09173 16.6016 3.91247 16.4954 3.81908 16.3241C3.0763 14.9647 2.68359 13.4224 2.68359 11.8646C2.68359 6.72704 6.8635 2.54737 12.0013 2.54737C17.1389 2.54737 21.3188 6.72704 21.3188 11.8646C21.3188 13.4224 20.9262 14.9647 20.1834 16.3241C20.0901 16.4954 19.9108 16.6016 19.716 16.6016Z" fill="#0F0D0D"/>
<path d="M14.2642 16.668C13.97 16.668 13.7314 16.43 13.7314 16.1355C13.7314 15.1807 12.9547 14.4041 12 14.4041C11.0453 14.4041 10.2686 15.1807 10.2686 16.1355C10.2686 16.43 10.0301 16.668 9.73587 16.668C9.44168 16.668 9.20312 16.43 9.20312 16.1355C9.20312 14.5932 10.4579 13.3385 12 13.3385C13.5421 13.3385 14.7969 14.5932 14.7969 16.1355C14.7969 16.43 14.5584 16.668 14.2642 16.668Z" fill="#0F0D0D"/>
<path d="M13.0851 14.4043C13.0027 14.4043 12.9191 14.3849 12.8409 14.3446C12.5795 14.2098 12.4772 13.8881 12.6124 13.6269L14.8346 9.32947C14.9698 9.06829 15.2912 8.96598 15.5525 9.10084C15.8138 9.23647 15.9161 9.55732 15.781 9.81927L13.5588 14.116C13.4641 14.2997 13.278 14.4043 13.0851 14.4043Z" fill="#0F0D0D"/>
</svg>
