<svg width="24" height="22" viewBox="0 0 24 22" fill="none" xmlns="http://www.w3.org/2000/svg">
<path d="M2.50191 21.2193C2.70724 21.2324 2.93485 21.2587 3.16259 21.2599C4.70078 21.2652 6.23898 21.267 7.77723 21.2664C11.9859 21.2658 16.1946 21.2652 20.4033 21.2599C20.6691 21.2599 20.935 21.2187 21.1805 21.1985C21.332 20.2983 21.2862 11.2402 21.1145 10.6679C20.6163 10.6643 20.0893 10.6637 19.5624 10.6566C19.0135 10.6488 18.4647 10.6351 17.8694 10.6232C17.8293 10.3799 17.8008 10.2077 17.7613 9.9674C18.0578 9.94773 18.2862 9.91971 18.5147 9.91971C19.7111 9.91673 20.9075 9.92388 22.1038 9.9209C22.3294 9.9203 22.5549 9.88692 22.847 9.86367C22.8598 8.71904 22.9316 7.63701 22.7949 6.51444C22.5027 6.50013 22.2715 6.47986 22.0402 6.47927C15.396 6.47331 8.75184 6.46794 2.10763 6.46675C1.84123 6.46675 1.57476 6.50729 1.26848 6.53232C1.21705 7.66741 1.19898 8.73156 1.27499 9.85055C1.55525 9.87142 1.78316 9.90122 2.0112 9.90301C3.14349 9.91017 4.27579 9.90778 5.40808 9.91374C5.6204 9.91494 5.83332 9.93401 6.04431 9.95905C6.09864 9.96501 6.14676 10.0234 6.23783 10.0842C6.20561 10.2291 6.17188 10.3811 6.12243 10.6041C4.88931 10.622 3.68407 10.6399 2.50528 10.6572C2.31934 11.3499 2.32031 20.5934 2.50191 21.2193ZM21.994 21.2473C22.5029 21.2473 22.9473 21.2432 23.3915 21.2485C23.6848 21.2521 23.9563 21.2992 24 21.7547C23.8973 21.8161 23.7736 21.9293 23.6297 21.9669C23.4692 22.0092 23.2905 21.9866 23.1197 21.9872C15.7485 21.9931 8.37732 21.9997 1.00618 22.0027C0.71068 22.0033 0.415184 21.9782 0.145587 21.9657C-0.0984712 21.4882 -0.0428167 21.3219 0.366698 21.2622C0.576364 21.2318 0.793197 21.2515 1.00654 21.2432C1.1947 21.236 1.38256 21.2205 1.5544 21.2098C1.71058 20.7251 1.73564 11.4185 1.58711 10.7102C1.29812 10.6601 0.992744 10.6071 0.708994 10.5576C0.481499 9.98767 0.477102 6.37017 0.687732 5.83601C1.27806 5.67803 22.8982 5.70664 23.389 5.86582C23.5572 6.27955 23.6146 9.83565 23.4439 10.594C23.0003 10.6357 22.5274 10.6798 21.994 10.7299C21.994 14.2198 21.994 17.6722 21.994 21.2473Z" fill="#0F0D0D"/>
<path d="M18.0991 0.00222063C18.6825 0.664554 18.2376 1.36206 18.5455 1.99339C18.9795 2.02738 19.4545 2.06434 19.9661 2.10428C20.0031 2.30519 20.0554 2.46496 20.0581 2.62592C20.0691 3.27991 20.066 3.93449 20.0659 4.58848C20.0659 4.85735 20.0341 5.10654 19.679 5.12085C19.3459 5.02487 19.3647 4.75779 19.3636 4.50382C19.3615 3.98218 19.363 3.46054 19.363 2.96633C18.7651 2.78509 15.7813 2.77198 15.0807 2.94189C15.0606 3.59945 15.0397 4.28265 15.0173 5.01354C14.8283 5.04693 14.6799 5.07256 14.4497 5.1131C14.3387 4.09188 14.3817 3.14279 14.4463 2.1323C14.9158 2.0858 15.3259 2.04526 15.7255 2.00591C16.01 1.37756 15.6069 0.666939 16.0172 0.116088C16.456 0.108934 16.4742 0.364685 16.4751 0.630573C16.4766 1.06875 16.4755 1.50752 16.4755 1.93795C16.9146 2.11799 17.2794 2.10011 17.6563 1.98564C17.9544 1.39306 17.5136 0.638919 18.0991 0.00222063Z" fill="#0F0D0D"/>
<path d="M7.77072 0.197788C7.80463 0.865487 7.83306 1.42647 7.86305 2.01667C8.28955 2.06556 8.65871 2.10729 9.03468 2.15021C9.0807 2.32369 9.13791 2.44233 9.13948 2.56156C9.14852 3.2382 9.15809 3.91544 9.13942 4.59149C9.12774 5.01416 9.05727 5.0553 8.55554 5.05291C8.27781 4.38462 8.58842 3.64181 8.374 2.96814C7.89992 2.8048 5.19534 2.76545 4.40058 2.91032C4.20031 3.22747 4.31559 3.5959 4.295 3.94346C4.2753 4.27731 4.29072 4.61355 4.29072 4.9927C4.08467 5.03563 3.93626 5.06722 3.7973 5.09644C3.59523 4.58076 3.55909 2.92582 3.73261 2.15737C4.1611 2.11981 4.61591 2.07927 5.13336 2.03336C5.15318 1.72515 5.17901 1.43721 5.18817 1.14926C5.19744 0.857141 5.19022 0.564426 5.19022 0.200768C5.42657 0.18348 5.59172 0.171556 5.85144 0.152479C5.85144 0.817197 5.85144 1.39786 5.85144 2.0274C6.28968 2.0274 6.64023 2.0274 7.02686 2.0274C7.27911 1.4694 7.01475 0.852373 7.22213 0.24429C7.37409 0.231771 7.52702 0.218654 7.77072 0.197788Z" fill="#0F0D0D"/>
<path d="M10.0471 13.8202C10.1798 13.5758 10.266 13.3713 10.3909 13.1937C11.1471 12.1182 11.9151 11.0511 12.6712 9.9756C12.7847 9.81404 12.8564 9.62386 12.9514 9.43905C11.0933 8.76301 8.36739 10.1038 7.65966 12.3072C6.94791 14.5231 8.22132 17.5552 10.1455 18.0798C10.884 16.7706 11.6263 15.4549 12.3948 14.0927C11.6027 13.8345 10.8281 14.1636 10.0471 13.8202ZM11.2331 19.079C11.3616 18.7922 11.4268 18.6467 11.4821 18.5233C11.5866 18.4923 11.6458 18.4643 11.7073 18.4578C12.6334 18.357 13.5054 18.0941 14.2976 17.6011C16.8233 16.0272 17.7575 12.3859 14.3909 9.92969C14.2618 9.8355 14.093 9.79496 13.873 9.69838C13.1727 10.7911 12.4932 11.8511 11.7946 12.9415C12.4675 13.3254 13.1966 12.8312 13.7713 13.2682C13.7659 13.3761 13.7905 13.4745 13.7537 13.5382C12.7139 15.3357 11.6695 17.1307 10.6191 18.9222C10.5591 19.0247 10.4427 19.0945 10.357 19.1755C10.2704 19.1582 10.1981 19.1624 10.1495 19.1308C9.08462 18.4393 8.14152 17.619 7.47012 16.534C5.54433 13.4226 7.43362 9.23993 11.0598 8.57224C13.3908 8.1424 15.8063 9.42176 16.7679 11.5948C17.7826 13.887 17.101 16.4928 15.1033 17.9558C14.2063 18.6128 13.1942 18.9872 12.0936 19.1237C11.855 19.1529 11.6062 19.101 11.2331 19.079Z" fill="#0F0D0D"/>
</svg>
