<svg width="24" height="20" viewBox="0 0 24 20" fill="none" xmlns="http://www.w3.org/2000/svg">
<path d="M18.4001 17.0908H5.59999C5.4356 17.0908 5.28149 17.0149 5.1856 16.8873C5.09039 16.7591 5.06505 16.5955 5.11848 16.4464L10.7158 0.875971C10.9069 0.343393 11.411 -8.96454e-05 12 -8.96454e-05C12.5891 -8.96454e-05 13.0925 0.344048 13.2836 0.875971L15.3898 6.73433C15.4816 6.98819 15.3398 7.26495 15.074 7.35262C14.8076 7.43964 14.5185 7.30421 14.4268 7.05035L12.3206 1.19134C12.25 0.993748 12.0726 0.972809 12 0.972809C11.9274 0.972809 11.75 0.993748 11.6788 1.19134L6.313 16.1179H17.6871L17.2987 15.039C17.2076 14.7845 17.3487 14.5084 17.6151 14.4207C17.8809 14.3337 18.1706 14.4691 18.2617 14.723L18.8816 16.4464C18.935 16.5955 18.9097 16.7591 18.8145 16.8873C18.7186 17.0149 18.5645 17.0908 18.4001 17.0908Z" fill="#0F0D0D"/>
<path d="M3.39662 19.1463H20.2397V17.2159H3.39662V19.1463ZM20.6649 19.9993H2.97135C2.73598 19.9993 2.54541 19.8083 2.54541 19.5725V16.7897C2.54541 16.5539 2.73598 16.3629 2.97135 16.3629H20.6649C20.9003 16.3629 21.0909 16.5539 21.0909 16.7897V19.5725C21.0909 19.8083 20.9003 19.9993 20.6649 19.9993Z" fill="#0F0D0D"/>
<path d="M7.57017 11.9988C7.48739 11.9988 7.40393 11.979 7.3272 11.9368L0.257096 8.08834C0.0982627 8.00201 0 7.83792 0 7.66V4.85205C0 4.58186 0.224122 4.36242 0.500061 4.36242H23.4993C23.7759 4.36242 24 4.58186 24 4.85205V7.44319C24 7.61848 23.9044 7.77993 23.749 7.86758L21.5266 9.119C21.287 9.25409 20.9815 9.17303 20.8435 8.93909C20.7056 8.70449 20.7883 8.40465 21.0279 8.27022L22.9992 7.15982V5.34233H1.00079V7.37201L7.81313 11.0808C8.05474 11.2119 8.14156 11.5105 8.00763 11.7464C7.9161 11.9078 7.74583 11.9988 7.57017 11.9988Z" fill="#0F0D0D"/>
<path d="M4.36339 5.09033C4.16286 5.09033 4 4.88643 4 4.63539V2.27316C4 2.0215 4.16286 1.8176 4.36339 1.8176C4.5644 1.8176 4.72727 2.0215 4.72727 2.27316V4.63539C4.72727 4.88643 4.5644 5.09033 4.36339 5.09033Z" fill="#0F0D0D"/>
<path d="M20.5455 5.09033C20.2445 5.09033 20 4.88643 20 4.63539V2.27316C20 2.0215 20.2445 1.8176 20.5455 1.8176C20.8472 1.8176 21.0909 2.0215 21.0909 2.27316V4.63539C21.0909 4.88643 20.8472 5.09033 20.5455 5.09033Z" fill="#0F0D0D"/>
<path d="M16.852 13.8154C16.7721 13.8154 16.6909 13.7952 16.6171 13.7528C16.3924 13.6243 16.3166 13.3411 16.4464 13.1204L17.6244 11.1213H16.1056C15.9376 11.1213 15.7819 11.0325 15.6979 10.8878C15.6146 10.7438 15.616 10.5669 15.7013 10.4236L17.2351 7.86134C17.3669 7.64132 17.6544 7.56797 17.8777 7.69783C18.101 7.82769 18.1755 8.11096 18.0437 8.33099L16.9278 10.1961H18.4398C18.6077 10.1961 18.7628 10.285 18.8468 10.4283C18.9301 10.5716 18.9301 10.7479 18.8454 10.8912L17.2583 13.5846C17.1716 13.7327 17.0139 13.8154 16.852 13.8154Z" fill="#0F0D0D"/>
<path d="M17.2724 6.8123C15.1137 6.8123 13.3577 8.56829 13.3577 10.7263C13.3577 12.885 15.1137 14.641 17.2724 14.641C19.4311 14.641 21.1871 12.885 21.1871 10.7263C21.1871 8.56829 19.4311 6.8123 17.2724 6.8123ZM17.2724 15.6357C14.5658 15.6357 12.3636 13.4336 12.3636 10.7263C12.3636 8.01975 14.5658 5.81756 17.2724 5.81756C19.979 5.81756 22.1818 8.01975 22.1818 10.7263C22.1818 13.4336 19.979 15.6357 17.2724 15.6357Z" fill="#0F0D0D"/>
</svg>
