<svg width="24" height="20" viewBox="0 0 24 20" fill="none" xmlns="http://www.w3.org/2000/svg">
<path d="M23.5459 15H20.3241C17.9393 15 16 12.7574 16 10.0004C16 7.24264 17.9393 5.00008 20.3241 5.00008H23.5459C23.7967 5.00008 24 5.2344 24 5.52446C24 5.81451 23.7967 6.04885 23.5459 6.04885H20.3241C18.4396 6.04885 16.9076 7.82121 16.9076 10.0004C16.9076 12.1789 18.4396 13.9512 20.3241 13.9512H23.5459C23.7967 13.9512 24 14.1856 24 14.4756C24 14.7657 23.7967 15 23.5459 15Z" fill="#0F0D0D"/>
<path d="M23.5459 10.8315H16.4535C16.2033 10.8315 16 10.4582 16 9.99881C16 9.53821 16.2033 9.16489 16.4535 9.16489H23.5459C23.7967 9.16489 24 9.53821 24 9.99881C24 10.4582 23.7967 10.8315 23.5459 10.8315Z" fill="#0F0D0D"/>
<path d="M3.6759 15H0.454118C0.203293 15 0 14.7657 0 14.4756C0 14.1856 0.203293 13.9512 0.454118 13.9512H3.6759C5.56039 13.9512 7.09307 12.1789 7.09307 10.0004C7.09307 7.82121 5.56039 6.04885 3.6759 6.04885H0.454118C0.203293 6.04885 0 5.81451 0 5.52446C0 5.2344 0.203293 5.00008 0.454118 5.00008H3.6759C6.06072 5.00008 8 7.24264 8 10.0004C8 12.7574 6.06072 15 3.6759 15Z" fill="#0F0D0D"/>
<path d="M7.54654 10.8315H0.454118C0.203293 10.8315 0 10.4582 0 9.99881C0 9.53821 0.203293 9.16489 0.454118 9.16489H7.54654C7.79737 9.16489 8 9.53821 8 9.99881C8 10.4582 7.79737 10.8315 7.54654 10.8315Z" fill="#0F0D0D"/>
<path d="M8.98161 8.33154H6.29099C6.02944 8.33154 5.81812 8.14488 5.81812 7.91519C5.81812 7.68489 6.02944 7.49822 6.29099 7.49822H8.98161C9.24248 7.49822 9.45448 7.68489 9.45448 7.91519C9.45448 8.14488 9.24248 8.33154 8.98161 8.33154Z" fill="#0F0D0D"/>
<path d="M11.5324 13.3315C11.4436 13.3315 11.3533 13.3098 11.2714 13.264C11.0217 13.1254 10.9375 12.8206 11.0817 12.5819L12.3906 10.4258H10.7031C10.5164 10.4258 10.3434 10.3301 10.25 10.1748C10.1575 10.0195 10.159 9.82787 10.2538 9.67402L11.9581 6.90984C12.1045 6.67326 12.424 6.59416 12.6721 6.73422C12.9202 6.87356 13.0029 7.1798 12.8564 7.4171L11.6166 9.42873H13.2965C13.4832 9.42873 13.6554 9.5238 13.7488 9.67838C13.8413 9.83295 13.8413 10.0231 13.7473 10.1777L11.9838 13.0833C11.8875 13.2423 11.7122 13.3315 11.5324 13.3315Z" fill="#0F0D0D"/>
<path d="M12.363 4.16675C11.962 4.16675 11.6362 3.94294 11.6362 3.66754V0.499334C11.6362 0.223932 11.962 0.000114441 12.363 0.000114441C12.7649 0.000114441 13.0908 0.223932 13.0908 0.499334V3.66754C13.0908 3.94294 12.7649 4.16675 12.363 4.16675Z" fill="#0F0D0D"/>
<path d="M14.3795 4.16675C14.2359 4.16675 14.0923 4.12917 13.983 4.05401C13.7635 3.90312 13.7635 3.65912 13.983 3.50879L16.4976 1.77951C16.7163 1.62919 17.0721 1.62919 17.2907 1.77951C17.5094 1.9304 17.5094 2.17439 17.2907 2.32471L14.776 4.05401C14.6659 4.12917 14.5223 4.16675 14.3795 4.16675Z" fill="#0F0D0D"/>
<path d="M9.00567 4.16675C8.89081 4.16675 8.77659 4.12917 8.68848 4.05401L6.67708 2.32471C6.50152 2.17439 6.50152 1.9304 6.67708 1.77951C6.85198 1.62919 7.13653 1.62919 7.31143 1.77951L9.32283 3.50879C9.49839 3.65912 9.49839 3.90312 9.32283 4.05401C9.23538 4.12917 9.12053 4.16675 9.00567 4.16675Z" fill="#0F0D0D"/>
<path d="M12.0001 20C11.7991 20 11.6362 19.7762 11.6362 19.5001V16.3326C11.6362 16.0565 11.7991 15.8334 12.0001 15.8334C12.2006 15.8334 12.3635 16.0565 12.3635 16.3326V19.5001C12.3635 19.7762 12.2006 20 12.0001 20Z" fill="#0F0D0D"/>
<path d="M6.99427 18.3315C6.8794 18.3315 6.76453 18.2814 6.67708 18.1812C6.50152 17.98 6.50152 17.6547 6.67708 17.4535L8.68848 15.1486C8.86404 14.9481 9.14793 14.9481 9.32283 15.1486C9.49839 15.349 9.49839 15.6751 9.32283 15.8755L7.31143 18.1812C7.22398 18.2814 7.10913 18.3315 6.99427 18.3315Z" fill="#0F0D0D"/>
<path d="M16.8942 18.3315C16.7506 18.3315 16.607 18.2814 16.4976 18.1812L13.983 15.8755C13.7635 15.6751 13.7635 15.349 13.983 15.1486C14.2016 14.9481 14.5566 14.9481 14.776 15.1486L17.2907 17.4535C17.5094 17.6547 17.5094 17.98 17.2907 18.1812C17.1814 18.2814 17.0378 18.3315 16.8942 18.3315Z" fill="#0F0D0D"/>
</svg>
