<svg width="24" height="24" viewBox="0 0 24 24" fill="none" xmlns="http://www.w3.org/2000/svg">
<path d="M8.28377 13.6169C8.5817 14.139 8.97306 14.26 9.45369 14.2679C9.8854 13.8545 10.3743 13.4863 10.578 12.8109C9.87835 12.5496 9.22405 12.6344 8.50566 12.7091C8.4239 13.0434 8.35007 13.346 8.28377 13.6169ZM12.7698 8.04558C12.7422 7.99524 12.7145 7.94546 12.6868 7.89569C11.8823 7.88833 11.0771 7.8527 10.238 7.93301C10.3047 8.56594 10.5065 9.04672 10.833 9.50034C11.149 9.45849 11.4302 9.42116 11.6983 9.38553C12.0718 8.91833 12.4208 8.48167 12.7698 8.04558ZM16.2563 10.2764C15.6162 10.2764 15.0062 10.2764 14.3837 10.2764C14.1077 10.7549 13.5066 10.9845 13.503 11.6588C14.2449 11.7922 14.9352 11.73 15.5831 11.7063C16.3644 10.9263 16.4276 10.7962 16.2563 10.2764ZM14.9341 14.4048C14.8919 14.3686 14.8497 14.3324 14.8075 14.2962C14.2847 14.3788 13.7634 14.4721 13.2387 14.54C12.5558 14.6288 11.8731 15.1469 11.5504 15.8822C12.3978 15.8822 13.2244 15.8822 14.1425 15.8822C14.3979 15.406 14.666 14.9054 14.9341 14.4048ZM14.7578 9.50826C15.0005 9.54276 15.1346 9.57841 15.2682 9.57727C15.5575 9.57501 15.8467 9.54051 16.1357 9.5439C16.6505 9.54899 16.9702 9.79673 17.0048 10.2911C17.0249 10.5773 16.9301 10.8771 16.8538 11.1621C16.8111 11.3222 16.7006 11.4653 16.5865 11.6797C17.2922 11.6723 17.6519 11.2413 18.1259 10.9144C18.0708 10.648 18.0417 10.3901 17.9629 10.1474C17.7242 9.41324 17.3265 8.76051 16.8549 8.14286C14.8429 5.50764 10.149 4.65243 7.28605 7.73788C5.95529 9.17229 5.48981 10.8601 5.82653 12.7583C5.86035 12.9489 5.88694 13.1503 6.13525 13.2679C6.31463 13.0236 6.47972 12.7979 6.64533 12.5728C6.97977 12.1186 7.40746 11.8652 8.01091 11.8952C8.73338 11.9314 9.45795 11.9302 10.1817 11.9382C10.4711 11.941 10.6959 12.0496 10.8859 12.2572C11.3978 12.8171 11.4262 13.135 10.9367 13.7414C10.5419 14.23 10.1026 14.6848 9.69337 15.1633C9.52997 15.3545 9.29542 15.527 9.39392 15.8811C9.73676 15.8811 10.0771 15.8811 10.4355 15.8811C10.8729 15.4314 11.3267 14.9925 11.7471 14.5253C12.0655 14.1712 12.4519 14.0038 12.9193 13.9235C13.5285 13.8188 14.1293 13.6673 14.7324 13.5298C15.0945 13.4478 15.451 13.3386 15.8161 13.2742C16.0236 13.238 16.2435 13.2679 16.5832 13.2679C16.4332 13.497 16.3798 13.6605 16.2647 13.7391C15.9431 13.9585 15.7723 14.2691 15.6101 14.5971C15.4043 15.0129 15.1909 15.4252 14.9685 15.833C14.8257 16.0949 14.661 16.3455 14.5386 16.5474C14.3961 16.5932 14.3376 16.6288 14.2789 16.6288C12.6662 16.6334 11.0533 16.6503 9.44098 16.6266C8.90453 16.6186 8.61681 16.2012 8.69705 15.6594C8.73122 15.4286 8.80044 15.2023 8.84995 14.9902C7.57331 14.2193 7.43463 13.902 7.81876 12.7057C7.3113 12.6729 6.71817 13.2408 6.36635 14.096C6.93143 16.833 10.2257 18.6916 13.4053 18.0915C15.9873 17.6045 18.569 14.8992 18.1829 11.8262C18.0262 11.8907 17.8627 11.9252 17.741 12.0134C17.3039 12.3318 16.8098 12.4201 16.2795 12.4218C15.6179 12.424 14.9564 12.4534 14.2948 12.454C14.0491 12.4546 13.7941 12.4393 13.5593 12.3754C12.8663 12.1876 12.5953 11.5666 12.9404 10.9602C13.0894 10.6989 13.2922 10.4664 13.4639 10.2158C13.693 9.8827 13.9133 9.54333 14.1416 9.20905C14.3636 8.88438 14.5909 8.56255 14.822 8.23053C14.0832 7.95903 13.6763 8.05292 13.2581 8.58121C13.0062 8.89909 12.7584 9.2215 12.5336 9.55748C12.3028 9.9025 11.988 10.0603 11.5764 10.1468C10.3675 10.4025 9.16637 10.6938 7.96496 10.9817C7.68866 11.0479 7.43755 11.092 7.244 10.838C7.18499 9.86121 8.09167 8.23675 8.93375 7.96186C8.67057 8.66323 8.43014 9.30408 8.15326 10.0422C8.90535 10.0162 9.49037 9.85272 10.0845 9.58801C9.82954 8.89683 9.5968 8.2656 9.3573 7.61627C9.64018 7.32724 9.99358 7.1649 10.3965 7.15585C11.2006 7.13719 12.0055 7.1502 12.7965 7.1502C13.1534 7.52124 13.5617 7.56819 14.0166 7.48561C14.2376 7.44545 14.47 7.45789 14.6972 7.45846C14.8203 7.45903 14.9481 7.46865 15.0653 7.50202C15.5705 7.64625 15.7645 8.10667 15.4841 8.53936C15.2814 8.85159 15.0371 9.13891 14.7578 9.50826ZM18.9477 12.0485C18.8214 14.7634 17.6951 16.8155 15.347 18.1091C12.6392 19.6 9.35304 19.065 7.16341 16.8477C5.3081 14.9693 4.29172 11.6899 5.73917 8.75033C7.01663 6.15584 10.071 4.65979 12.9893 5.14622C16.228 5.68638 18.4043 8.41096 18.8575 10.9681C18.9271 11.3607 18.9255 11.7651 18.9477 12.0485Z" fill="#0F0D0D"/>
<path d="M20.3116 11.3704C21.5184 11.3704 22.6971 11.3704 23.9484 11.3704C23.967 11.744 23.9833 12.0717 24.0005 12.4161C23.8319 12.5017 23.735 12.5915 23.6374 12.5935C22.6611 12.6165 21.6845 12.6447 20.7083 12.629C20.2019 12.6207 20.1071 12.3201 20.3116 11.3704Z" fill="#0F0D0D"/>
<path d="M11.7555 24.0034C11.643 23.8945 11.3934 23.7648 11.3895 23.6328C11.3579 22.5372 11.3716 21.4415 11.3716 20.3084C11.7034 20.2715 11.9775 20.241 12.2183 20.2139C12.3545 20.2963 12.4712 20.3355 12.4941 20.3868C12.5552 20.5234 12.6054 20.6652 12.6082 20.8052C12.6249 21.66 12.6317 22.5147 12.6318 23.3694C12.6318 23.6576 12.6481 23.9613 11.7555 24.0034Z" fill="#0F0D0D"/>
<path d="M12.2477 0.0109565C12.3747 0.152646 12.6075 0.294339 12.6117 0.437901C12.6428 1.5115 12.6286 2.58571 12.6286 3.63933C11.7856 3.90524 11.4147 3.82971 11.394 3.36157C11.3521 2.41656 11.3642 1.46968 11.4154 0.525287C11.425 0.348018 11.721 0.176363 11.8848 0.00221562C12.0057 0.00471234 12.1267 0.00783563 12.2477 0.0109565Z" fill="#0F0D0D"/>
<path d="M3.78953 11.3772C3.78953 11.8434 3.78953 12.1466 3.78953 12.4911C3.59384 12.5426 3.43489 12.6179 3.27533 12.621C2.42248 12.6355 1.56957 12.6344 0.716653 12.6324C0.428131 12.6313 0.13546 12.6241 0 11.9248C0.149782 11.7609 0.321717 11.4112 0.500746 11.403C1.56067 11.3504 2.62219 11.3772 3.78953 11.3772Z" fill="#0F0D0D"/>
<path d="M6.31591 6.1506C6.0653 6.40944 5.86193 6.33468 5.69872 6.17269C5.10906 5.58648 4.52827 4.9912 3.95497 4.38856C3.86769 4.29681 3.83762 4.14728 3.78955 4.04307C3.93955 3.72872 4.14622 3.74175 4.32695 3.91563C4.95317 4.51997 5.56914 5.13563 6.17372 5.76262C6.26574 5.85834 6.27648 6.03619 6.31591 6.1506Z" fill="#0F0D0D"/>
<path d="M17.6846 17.9798C18.0425 17.6195 18.1157 17.5992 18.3985 17.8735C18.8344 18.296 19.2492 18.7411 19.6726 19.177C19.8138 19.3223 19.9596 19.4635 20.0932 19.6158C20.2467 19.7907 20.2743 19.9738 20.0287 20.2126C19.8863 20.1528 19.6736 20.1237 19.5497 20.0017C18.8965 19.3566 18.1733 18.7714 17.6846 17.9798Z" fill="#0F0D0D"/>
<path d="M3.78955 20.057C3.8227 19.9243 3.81197 19.7554 3.89476 19.6692C4.51847 19.0182 5.16064 18.3833 5.85364 17.6863C6.04758 17.8788 6.17647 18.0069 6.31591 18.1454C6.19661 18.3178 6.13384 18.4488 6.03499 18.5453C5.53292 19.036 5.02 19.5169 4.51403 20.0041C4.32243 20.1886 4.13102 20.3374 3.78955 20.057Z" fill="#0F0D0D"/>
<path d="M20.0191 3.79371C20.2889 4.07959 20.2471 4.3174 20.0604 4.50715C19.5011 5.07703 18.9317 5.63756 18.3476 6.18185C18.1522 6.36411 17.9097 6.4078 17.6846 6.05263C18.1408 5.21373 18.9637 4.65446 19.5946 3.9354C19.6858 3.83178 19.8971 3.83116 20.0191 3.79371Z" fill="#0F0D0D"/>
</svg>
