<svg width="44" height="60" viewBox="0 0 44 60" fill="none" xmlns="http://www.w3.org/2000/svg">
<path d="M20.9685 30.905C20.7167 30.905 20.4607 30.8457 20.2283 30.7212C19.5203 30.3437 19.2814 29.5136 19.6903 28.8634L23.4025 22.9915H18.6186C18.087 22.9915 17.5964 22.7306 17.3338 22.3077C17.0691 21.8848 17.0734 21.363 17.3424 20.944L22.1758 13.4179C22.5912 12.7717 23.4993 12.5562 24.203 12.9377C24.9067 13.3191 25.1392 14.1512 24.726 14.7974L21.2074 20.276H25.972C26.5014 20.276 26.9899 20.5349 27.2546 20.9559C27.5193 21.3768 27.5171 21.8966 27.2524 22.3156L22.249 30.229C21.9757 30.6619 21.4786 30.905 20.9685 30.905Z" fill="#E8040F"/>
<path d="M22.2937 10.2622C15.3513 10.2622 9.70222 15.4503 9.70222 21.828C9.70222 28.2039 15.3513 33.3919 22.2937 33.3919C29.2382 33.3919 34.8872 28.2039 34.8872 21.828C34.8872 15.4503 29.2382 10.2622 22.2937 10.2622ZM22.2937 36.3307C13.5866 36.3307 6.5022 29.8245 6.5022 21.828C6.5022 13.8296 13.5866 7.32336 22.2937 7.32336C31.0029 7.32336 38.0872 13.8296 38.0872 21.828C38.0872 29.8245 31.0029 36.3307 22.2937 36.3307Z" fill="#E8040F"/>
<path d="M2.789 49.1092H41.211V2.56142H2.789V49.1092ZM42.6055 51.6706H1.39448C0.624058 51.6706 0 51.0974 0 50.3899V1.28072C0 0.573177 0.624058 1.14441e-05 1.39448 1.14441e-05H42.6055C43.3759 1.14441e-05 44 0.573177 44 1.28072V50.3899C44 51.0974 43.3759 51.6706 42.6055 51.6706Z" fill="#E8040F"/>
<path d="M9.58011 49.0312H35.0061V42.9044H9.58011V49.0312ZM36.4845 51.7468H8.09951C7.2839 51.7468 6.62109 51.14 6.62109 50.389V41.5447C6.62109 40.7956 7.2839 40.1869 8.09951 40.1869H36.4845C37.3023 40.1869 37.9651 40.7956 37.9651 41.5447V50.389C37.9651 51.14 37.3023 51.7468 36.4845 51.7468Z" fill="#E8040F"/>
<path d="M12.5495 59.9997C11.7339 59.9997 11.071 59.391 11.071 58.6419V54.1694C11.071 53.4203 11.7339 52.8116 12.5495 52.8116C13.3673 52.8116 14.0301 53.4203 14.0301 54.1694V58.6419C14.0301 59.391 13.3673 59.9997 12.5495 59.9997Z" fill="#E8040F"/>
<path d="M18.9696 59.9997C18.154 59.9997 17.4912 59.391 17.4912 58.6419V54.1694C17.4912 53.4203 18.154 52.8116 18.9696 52.8116C19.7874 52.8116 20.4502 53.4203 20.4502 54.1694V58.6419C20.4502 59.391 19.7874 59.9997 18.9696 59.9997Z" fill="#E8040F"/>
<path d="M25.3895 59.9997C24.5739 59.9997 23.9111 59.391 23.9111 58.6419V54.1694C23.9111 53.4203 24.5739 52.8116 25.3895 52.8116C26.2073 52.8116 26.8701 53.4203 26.8701 54.1694V58.6419C26.8701 59.391 26.2073 59.9997 25.3895 59.9997Z" fill="#E8040F"/>
<path d="M31.8117 59.9997C30.9939 59.9997 30.3311 59.391 30.3311 58.6419V54.1694C30.3311 53.4203 30.9939 52.8116 31.8117 52.8116C32.6273 52.8116 33.2901 53.4203 33.2901 54.1694V58.6419C33.2901 59.391 32.6273 59.9997 31.8117 59.9997Z" fill="#E8040F"/>
</svg>
