<svg width="58" height="60" viewBox="0 0 58 60" fill="none" xmlns="http://www.w3.org/2000/svg">
<path d="M20.5558 45.9072C20.3159 45.9072 20.0719 45.8458 19.8505 45.7169C19.178 45.3262 18.9484 44.4669 19.34 43.7938L22.8747 37.7154H18.3169C17.8105 37.7154 17.343 37.4454 17.0928 37.0076C16.8407 36.5698 16.8448 36.0296 17.1011 35.5959L21.706 27.8051C22.1017 27.1361 22.9669 26.9131 23.6374 27.3079C24.3078 27.7008 24.5292 28.5642 24.1356 29.2332L20.7834 34.9044H25.3227C25.8271 34.9044 26.2925 35.1724 26.5447 35.6082C26.7969 36.0439 26.7948 36.58 26.5426 37.0157L21.7757 45.2075C21.5153 45.6556 21.0417 45.9072 20.5558 45.9072Z" fill="#E8040F"/>
<path d="M21.8189 24.5381C15.2047 24.5381 9.82269 29.9085 9.82269 36.5106C9.82269 43.1107 15.2047 48.4812 21.8189 48.4812C28.4352 48.4812 33.8172 43.1107 33.8172 36.5106C33.8172 29.9085 28.4352 24.5381 21.8189 24.5381ZM21.8189 51.5234C13.5234 51.5234 6.77393 44.7883 6.77393 36.5106C6.77393 28.2309 13.5234 21.4958 21.8189 21.4958C30.1164 21.4958 36.866 28.2309 36.866 36.5106C36.866 44.7883 30.1164 51.5234 21.8189 51.5234Z" fill="#E8040F"/>
<path d="M3.31914 57.1869H39.7609V2.81311H3.31914V57.1869ZM41.1715 60H1.90853C1.13147 60 0.5 59.3699 0.5 58.5945V1.40551C0.5 0.630119 1.13147 0 1.90853 0H41.1715C41.9486 0 42.58 0.630119 42.58 1.40551V58.5945C42.58 59.3699 41.9486 60 41.1715 60Z" fill="#E8040F"/>
<path d="M9.70781 13.4681H33.1754V10.0229H9.70781V13.4681ZM34.586 16.2812H8.2972C7.52014 16.2812 6.88867 15.6511 6.88867 14.8757V8.61733C6.88867 7.83989 7.52014 7.21181 8.2972 7.21181H34.586C35.363 7.21181 35.9945 7.83989 35.9945 8.61733V14.8757C35.9945 15.6511 35.363 16.2812 34.586 16.2812Z" fill="#E8040F"/>
<path d="M41.1714 51.9902C40.3922 51.9902 39.7607 51.3601 39.7607 50.5827C39.7607 49.8073 40.3922 49.1771 41.1714 49.1771C45.9567 49.1771 49.8523 45.292 49.8523 40.5148V30.6168C49.8523 29.8393 50.4817 29.2092 51.2608 29.2092C52.0399 29.2092 52.6694 29.8393 52.6694 30.6168V40.5148C52.6694 46.8427 47.5108 51.9902 41.1714 51.9902Z" fill="#E8040F"/>
<path d="M51.1523 31.335C47.6545 31.335 44.8066 28.4932 44.8066 25.0009V11.8928C44.8066 11.1153 45.4381 10.4873 46.2152 10.4873C46.9943 10.4873 47.6258 11.1153 47.6258 11.8928V25.0009C47.6258 26.9424 49.2086 28.5219 51.1523 28.5219C53.098 28.5219 54.6808 26.9424 54.6808 25.0009V11.8928C54.6808 11.1153 55.3123 10.4873 56.0914 10.4873C56.8684 10.4873 57.5 11.1153 57.5 11.8928V25.0009C57.5 28.4932 54.6521 31.335 51.1523 31.335Z" fill="#E8040F"/>
</svg>
