<svg width="70" height="60" viewBox="0 0 70 60" fill="none" xmlns="http://www.w3.org/2000/svg">
<path d="M25.6567 39.7475C25.4145 39.7475 25.1724 39.6873 24.9472 39.5584C18.4291 35.8159 14.3784 28.7541 14.3784 21.1295C14.3784 9.47871 23.6671 -1.52588e-05 35.0864 -1.52588e-05C46.5036 -1.52588e-05 55.7923 9.47871 55.7923 21.1295C55.7923 28.8637 52.1922 35.4271 45.9141 39.1395C45.2236 39.5498 44.3372 39.3092 43.9372 38.6045C43.5351 37.8977 43.7709 36.9954 44.4635 36.5851C49.8237 33.414 52.8975 27.7809 52.8975 21.1295C52.8975 11.1072 44.9078 2.95403 35.0864 2.95403C25.263 2.95403 17.2732 11.1072 17.2732 21.1295C17.2732 27.6885 20.7576 33.7642 26.3662 36.9846C27.063 37.3842 27.3093 38.2844 26.9178 38.9956C26.6525 39.4768 26.1619 39.7475 25.6567 39.7475Z" fill="#E8040F"/>
<path d="M35.7151 60.0004C29.696 60.0004 24.7969 55.0011 24.7969 48.8567V38.5895C24.7969 37.7731 25.4453 37.1114 26.2453 37.1114C27.0433 37.1114 27.6917 37.7731 27.6917 38.5895V48.8567C27.6917 53.3726 31.2918 57.0464 35.7151 57.0464C40.1405 57.0464 43.7406 53.3726 43.7406 48.8567V37.8633C43.7406 37.0469 44.389 36.3852 45.187 36.3852C45.987 36.3852 46.6354 37.0469 46.6354 37.8633V48.8567C46.6354 55.0011 41.7363 60.0004 35.7151 60.0004Z" fill="#E8040F"/>
<path d="M68.5539 22.6069H60.3452C59.5452 22.6069 58.8967 21.9451 58.8967 21.1288C58.8967 20.3145 59.5452 19.6528 60.3452 19.6528H68.5539C69.3539 19.6528 70.0002 20.3145 70.0002 21.1288C70.0002 21.9451 69.3539 22.6069 68.5539 22.6069Z" fill="#E8040F"/>
<path d="M57.442 11.0903C57.0714 11.0903 56.7009 10.9442 56.4188 10.6563C55.8545 10.0805 55.8545 9.14598 56.4188 8.56807L62.2231 2.64493C62.7895 2.06916 63.7053 2.06916 64.2695 2.64493C64.8359 3.22285 64.8359 4.15741 64.2695 4.73318L58.4651 10.6563C58.183 10.9442 57.8125 11.0903 57.442 11.0903Z" fill="#E8040F"/>
<path d="M63.2463 40.6684C62.8758 40.6684 62.5053 40.5223 62.2231 40.2344L56.4188 34.3113C55.8545 33.7355 55.8545 32.801 56.4188 32.2231C56.9851 31.6473 57.9009 31.6473 58.4651 32.2231L64.2695 38.1462C64.8359 38.7241 64.8359 39.6587 64.2695 40.2344C63.9874 40.5223 63.6169 40.6684 63.2463 40.6684Z" fill="#E8040F"/>
<path d="M9.65479 22.6069H1.44612C0.646095 22.6069 -0.000244141 21.9451 -0.000244141 21.1288C-0.000244141 20.3145 0.646095 19.6528 1.44612 19.6528H9.65479C10.4548 19.6528 11.1033 20.3145 11.1033 21.1288C11.1033 21.9451 10.4548 22.6069 9.65479 22.6069Z" fill="#E8040F"/>
<path d="M12.5583 11.0903C12.1877 11.0903 11.8172 10.9442 11.5351 10.6563L5.72859 4.73318C5.16436 4.15741 5.16436 3.22285 5.72859 2.64493C6.29492 2.06916 7.21074 2.06916 7.77707 2.64493L13.5815 8.56807C14.1457 9.14598 14.1457 10.0805 13.5815 10.6563C13.2993 10.9442 12.9288 11.0903 12.5583 11.0903Z" fill="#E8040F"/>
<path d="M6.75389 40.6684C6.38335 40.6684 6.01281 40.5223 5.72859 40.2344C5.16436 39.6587 5.16436 38.7241 5.72859 38.1462L11.5351 32.2231C12.0993 31.6473 13.0172 31.6473 13.5815 32.2231C14.1457 32.801 14.1457 33.7355 13.5815 34.3113L7.77707 40.2344C7.49285 40.5223 7.12232 40.6684 6.75389 40.6684Z" fill="#E8040F"/>
<path d="M33.788 30.5649C33.5417 30.5649 33.2933 30.5004 33.0638 30.3651C32.3732 29.9569 32.1375 29.0524 32.5396 28.3477L36.1713 21.9649H31.489C30.969 21.9649 30.489 21.6791 30.2321 21.2194C29.9732 20.7596 29.9774 20.1946 30.2427 19.737L34.9712 11.5559C35.3755 10.8533 36.2639 10.6192 36.9523 11.0338C37.6408 11.4485 37.8703 12.3529 37.4639 13.0554L34.0217 19.0108H38.6829C39.2008 19.0108 39.6787 19.2923 39.9377 19.7499C40.1966 20.2075 40.1945 20.7725 39.9356 21.228L35.0428 29.8301C34.7733 30.3028 34.287 30.5649 33.788 30.5649Z" fill="#E8040F"/>
<path d="M45.187 45.6645H26.2453C25.4453 45.6645 24.7969 45.0028 24.7969 44.1864C24.7969 43.3722 25.4453 42.7104 26.2453 42.7104H45.187C45.987 42.7104 46.6354 43.3722 46.6354 44.1864C46.6354 45.0028 45.987 45.6645 45.187 45.6645Z" fill="#E8040F"/>
</svg>
