<svg width="48" height="60" viewBox="0 0 48 60" fill="none" xmlns="http://www.w3.org/2000/svg">
<path d="M23.8816 43.0473H31.8732C32.5394 43.0473 33.1654 43.3704 33.5475 43.9103C33.9296 44.4502 34.0215 45.1417 33.7931 45.7604L30.4817 54.743L44.4216 38.9708H36.5802C35.9275 38.9708 35.3093 38.6595 34.926 38.1373C34.5429 37.6152 34.4349 36.9374 34.6375 36.3247L37.5369 27.5293L23.8816 43.0473ZM28.5603 59.9997C28.2039 59.9997 27.8427 59.9051 27.5112 59.712C26.6509 59.2076 26.2889 58.2087 26.6314 57.2807L30.8796 45.7565H22.3549C21.544 45.7565 20.8313 45.3033 20.495 44.5743C20.1589 43.8433 20.2808 43.0138 20.813 42.4089L37.7172 23.1986C38.3633 22.4656 39.4117 22.2883 40.267 22.7671C41.1221 23.2459 41.5066 24.2271 41.2018 25.1511L37.5381 36.2636H45.9527C46.7647 36.2636 47.4776 36.7168 47.8133 37.4477C48.1492 38.1807 48.0257 39.0102 47.4911 39.6151L30.09 59.3022C29.6858 59.7593 29.1289 59.9997 28.5603 59.9997Z" fill="#E8040F"/>
<path d="M14.1536 59.9997C13.474 59.9997 12.9229 59.3928 12.9229 58.646V33.8556C12.9229 33.1068 13.474 32.4999 14.1536 32.4999C14.8333 32.4999 15.3844 33.1068 15.3844 33.8556V58.646C15.3844 59.3928 14.8333 59.9997 14.1536 59.9997Z" fill="#E8040F"/>
<path d="M17.1248 17.5001H11.183C10.4448 17.5001 9.84619 16.8001 9.84619 15.9387C9.84619 15.0751 10.4448 14.3751 11.183 14.3751H17.1248C17.8628 14.3751 18.4616 15.0751 18.4616 15.9387C18.4616 16.8001 17.8628 17.5001 17.1248 17.5001Z" fill="#E8040F"/>
<path d="M17.1248 33.7498H11.183C10.4448 33.7498 9.84619 33.0498 9.84619 32.1885C9.84619 31.3248 10.4448 30.6248 11.183 30.6248H17.1248C17.8628 30.6248 18.4616 31.3248 18.4616 32.1885C18.4616 33.0498 17.8628 33.7498 17.1248 33.7498Z" fill="#E8040F"/>
<path d="M2.68524 11.4983V13.8534C2.68524 21.2388 7.82992 27.2476 14.1537 27.2476C20.4776 27.2476 25.6225 21.2388 25.6225 13.8534V11.4983H2.68524ZM14.1537 29.9989C6.34941 29.9989 0 22.7555 0 13.8534V10.1237C0 9.36335 0.60139 8.74906 1.34262 8.74906H26.9651C27.7065 8.74906 28.3077 9.36335 28.3077 10.1237V13.8534C28.3077 22.7555 21.9583 29.9989 14.1537 29.9989Z" fill="#E8040F"/>
<path d="M8.30751 11.8749C7.45793 11.8749 6.76904 11.2516 6.76904 10.4799V1.39504C6.76904 0.625442 7.45793 2.47955e-05 8.30751 2.47955e-05C9.15709 2.47955e-05 9.84597 0.625442 9.84597 1.39504V10.4799C9.84597 11.2516 9.15709 11.8749 8.30751 11.8749Z" fill="#E8040F"/>
<path d="M20.9232 11.8749C20.2435 11.8749 19.6924 11.2516 19.6924 10.4799V1.39504C19.6924 0.625442 20.2435 2.47955e-05 20.9232 2.47955e-05C21.6028 2.47955e-05 22.1539 0.625442 22.1539 1.39504V10.4799C22.1539 11.2516 21.6028 11.8749 20.9232 11.8749Z" fill="#E8040F"/>
</svg>
