<svg width="38" height="38" viewBox="0 0 38 38" fill="none" xmlns="http://www.w3.org/2000/svg">
<path fill-rule="evenodd" clip-rule="evenodd" d="M13.8152 6.13241H18.0245C18.3238 6.13241 18.5709 6.35002 18.6199 6.63471L22.5052 24.3462C26.3726 23.731 28.3143 26.0102 30.307 25.7402C33.3743 25.3247 35.2885 23.7883 37.6933 25.2903C37.8732 25.395 37.9943 25.5897 37.9943 25.8122V37.3963C37.9943 37.73 37.7243 38 37.3906 38H0.603651C0.269926 38 0 37.73 0 37.3963L0.00163592 14.578C0.00163592 14.3227 0.161955 14.1035 0.386077 14.0151C2.1954 13.1103 3.43708 13.5374 4.69674 13.9709C6.11834 14.4602 6.57805 14.5485 8.0373 14.1264C9.70921 13.6404 11.2928 13.1807 13.2115 14.0397V6.73431C13.2131 6.40217 13.4831 6.13241 13.8152 6.13241ZM36.7882 26.151C35.2144 25.3215 32.9748 26.5944 30.4669 26.9331C27.9852 27.2702 26.2871 25.009 22.7631 25.5244L23.9721 31.0332C26.9167 30.5522 28.6425 31.9086 29.9219 31.7695C32.6522 31.475 34.4729 30.2266 36.788 31.2328L36.7882 26.151ZM36.7882 32.5826C34.6467 31.3833 32.9405 32.6562 30.0481 32.9688C28.3696 33.1504 26.8826 31.812 24.2289 32.2112L25.2334 36.7927H36.7862L36.7882 32.5826ZM13.2129 36.7926V32.3962C10.512 31.1756 9.38815 32.8773 6.86902 32.8691C4.88791 32.8625 4.55258 31.1445 1.20858 32.0968L1.20694 36.7926L13.2129 36.7926ZM1.20691 30.8498C4.67503 29.9663 5.44721 31.663 6.86734 31.6679C9.02841 31.6744 10.3567 30.0235 13.2113 31.0936L13.2129 26.0442C10.7803 25.1787 10.0408 26.8967 7.36609 27.0472C5.49131 27.1535 3.81613 25.8233 1.20854 26.0966L1.20691 30.8498ZM1.20691 24.8894C3.98142 24.6342 5.78434 25.9333 7.29912 25.8466C9.57632 25.7173 10.5628 24.0043 13.2113 24.7749V21.1541C10.6854 20.1511 9.6842 20.2198 7.39377 20.9528C3.65732 22.1489 3.97962 20.2116 1.20691 20.4996V24.8894ZM1.20691 19.2888C4.28899 19.0074 3.83091 20.8317 7.02732 19.8075C9.40269 19.0483 10.6558 18.9223 13.2113 19.8648V15.3897C11.253 14.2836 9.60241 14.9397 7.85695 15.4289C4.95973 16.2405 3.63299 13.9678 1.20691 14.961V19.2888ZM27.1902 7.94357C27.1477 8.02537 27.1248 8.11864 27.1248 8.21844C27.1248 8.99237 28.0883 8.82219 28.7967 8.82219L27.5763 11.8295C27.3227 12.4561 28.1521 12.965 28.5938 12.4447L33.0222 7.23198C33.1285 7.124 33.1923 6.97511 33.1923 6.81149C33.1923 6.04904 32.2648 6.20774 31.6169 6.20774L32.821 3.93999C33.0811 3.49005 32.7473 3.0172 32.3089 3.0172H29.7667V3.01884C29.536 3.01884 29.3152 3.153 29.2154 3.3788L27.1902 7.94357ZM30.1578 4.22128L28.6527 7.61472H29.6899C30.1087 7.61308 30.4097 8.04501 30.2477 8.44427L30.0988 8.81241L31.2865 7.4135H30.6158V7.41187C30.1675 7.41187 29.8714 6.93248 30.0841 6.52996L31.3078 4.22132L30.1578 4.22128ZM30.1594 0C25.8324 0 22.3233 3.50959 22.3233 7.8373C22.3233 14.7942 30.7746 18.3038 35.6988 13.3788C40.6247 8.45219 37.1155 0 30.1594 0ZM34.8461 3.14799C30.6811 -1.01771 23.5303 1.94703 23.5303 7.83546C23.5303 13.7239 30.6808 16.6906 34.8474 12.5229C37.4354 9.93449 37.4354 5.73613 34.8458 3.14757L34.8461 3.14799ZM17.5398 7.33827H14.4185V36.7925H24.0018L17.5398 7.33827Z" fill="#0F0D0D"/>
</svg>
