<svg width="38" height="38" viewBox="0 0 38 38" fill="none" xmlns="http://www.w3.org/2000/svg">
<path fill-rule="evenodd" clip-rule="evenodd" d="M23.1484 34.4602L22.7208 38H15.2792L14.8516 34.4602L11.0009 32.863L8.1947 35.0639L2.9361 29.8053L5.13698 26.9991L3.53978 23.1484L0 22.7208V15.2792L3.53978 14.8516L5.13698 11.0009L2.9361 8.1947L8.1947 2.9361L11.0009 5.13698L14.8516 3.53978L15.2792 0H22.7208L23.1484 3.53978L26.9991 5.13698L29.8053 2.9361L35.0639 8.1947L32.863 11.0009L34.4602 14.8516L38 15.2792V22.7208L34.4602 23.1484L32.863 26.9991L35.0639 29.8053L29.8053 35.0639L26.9991 32.863L23.1484 34.4602ZM19.7073 23.762L20.6005 22.5579C19.9475 17.1279 23.6699 14.753 28.7608 15.5193C26.3856 8.85093 18.135 6.48229 12.5867 10.8595C11.0717 12.0554 9.89894 13.6641 9.23934 15.5193C14.3303 14.7545 18.0528 17.128 17.398 22.5579L18.2912 23.7603L18.2928 16.9045H19.7074L19.7073 23.762ZM21.9427 21.1647C22.831 20.3521 23.7735 19.676 24.6502 19.1513L25.374 20.362C24.4857 20.8933 23.5251 21.594 22.6418 22.4428C26.5172 22.7356 27.7871 20.7749 29.0125 18.8799C29.376 18.3174 29.7363 17.7614 30.1508 17.2499C26.3905 16.2465 22.0707 16.628 21.9427 21.1647ZM21.4673 23.7274C20.6597 24.7489 20.0149 25.92 19.7073 27.2195V29.3348C24.3279 29.0239 28.1569 25.67 29.1242 21.204C27.7359 23.0018 25.8002 24.3968 21.4673 23.7274ZM31.9142 17.4359L32.8354 16.6266L30.3466 15.8436C29.6689 13.4042 28.2247 11.2823 26.287 9.75417C19.6633 4.52842 9.8893 7.80005 7.65541 15.8436L5.16667 16.6266L6.08617 17.4359C6.51547 17.8142 6.88392 18.2797 7.23103 18.7781C7.22774 18.9393 7.2261 18.9853 7.2261 19.0001C7.2261 22.2521 8.54365 25.1948 10.6754 27.3251C18.074 34.7254 30.7741 29.4553 30.7741 19.0001C30.7741 18.9722 30.7725 18.9459 30.7692 18.7781C31.1163 18.278 31.4849 17.8142 31.9142 17.4359ZM18.2927 29.3351V27.2181C17.9851 25.9187 17.3387 24.7475 16.5327 23.7276C12.2018 24.3971 10.2639 23.0022 8.87556 21.2044C9.84277 25.6701 13.6725 29.0239 18.2927 29.3351ZM15.3599 22.4431C14.4766 21.5943 13.5144 20.8936 12.6277 20.3623L13.3515 19.1516C14.2266 19.6764 15.1691 20.3524 16.059 21.165C15.9307 16.6285 11.6114 16.2483 7.85277 17.2501C8.26729 17.7617 8.6275 18.3193 8.99103 18.8802C10.2148 20.7751 11.4846 22.7342 15.3599 22.4431ZM21.4674 36.5858L21.8441 33.4721L27.2181 31.2432L29.6887 33.1809L33.1825 29.6872L31.2448 27.2166L33.4736 21.8426L36.5874 21.4659L36.5857 16.5328L33.472 16.1561L31.2431 10.7822L33.1808 8.31153L29.6871 4.81777L27.2164 6.75547L21.8425 4.52663L21.4674 1.41451H16.5327L16.156 4.52827L10.782 6.75711L8.31137 4.81941L4.81762 8.31317L6.75531 10.7838L4.52647 16.1578L1.41435 16.5328V21.4693L4.52812 21.8459L6.75695 27.2199L4.81926 29.6905L8.31301 33.1843L10.7836 31.2466L16.1576 33.4754L16.5343 36.5892L21.4674 36.5858Z" fill="#0F0D0D"/>
</svg>
