<svg width="36" height="38" viewBox="0 0 36 38" fill="none" xmlns="http://www.w3.org/2000/svg">
<mask id="path-1-inside-1_3136_41828" fill="white">
<path fill-rule="evenodd" clip-rule="evenodd" d="M18.9324 4.72471H18.9588C22.6677 4.95456 26.1617 6.53374 28.7969 9.17129C31.6798 12.0568 33.269 15.8949 33.269 19.9758C33.269 20.49 33.6869 20.9084 34.2007 20.9084C34.7145 20.9084 35.1325 20.49 35.1325 19.9758C35.1325 15.3954 33.3516 11.0911 30.1153 7.85137C27.1151 4.8484 23.1353 3.07417 18.9111 2.85235C18.6798 2.84078 18.4997 2.64896 18.4997 2.41747V1.18552L14.0442 3.76017L18.4997 6.33647V5.15743C18.4997 5.03672 18.5493 4.92262 18.6368 4.83994C18.7178 4.76387 18.8252 4.72253 18.9342 4.72253L18.9324 4.72471ZM34.2009 21.78C33.208 21.78 32.4001 20.9713 32.4001 19.9775C32.4001 16.1279 30.9017 12.5097 28.1824 9.78646C25.8084 7.41023 22.6928 5.9435 19.3669 5.62931V7.09108C19.3669 7.24652 19.2843 7.39039 19.1488 7.4681C19.015 7.54582 18.8482 7.54582 18.7144 7.4681L12.9554 4.13939C12.8216 4.06167 12.7373 3.91781 12.7373 3.76237C12.7373 3.60693 12.8199 3.46307 12.9554 3.38535L18.7144 0.0582884C18.8482 -0.0194295 19.0151 -0.0194295 19.1488 0.0582884C19.2826 0.136006 19.3669 0.279872 19.3669 0.433657V2.01121C23.6541 2.33532 27.6753 4.18074 30.728 7.23671C34.128 10.6398 35.9998 15.1643 35.9998 19.9762C35.9998 20.97 35.1919 21.7786 34.1991 21.7786L34.2009 21.78Z"/>
</mask>
<path fill-rule="evenodd" clip-rule="evenodd" d="M18.9324 4.72471H18.9588C22.6677 4.95456 26.1617 6.53374 28.7969 9.17129C31.6798 12.0568 33.269 15.8949 33.269 19.9758C33.269 20.49 33.6869 20.9084 34.2007 20.9084C34.7145 20.9084 35.1325 20.49 35.1325 19.9758C35.1325 15.3954 33.3516 11.0911 30.1153 7.85137C27.1151 4.8484 23.1353 3.07417 18.9111 2.85235C18.6798 2.84078 18.4997 2.64896 18.4997 2.41747V1.18552L14.0442 3.76017L18.4997 6.33647V5.15743C18.4997 5.03672 18.5493 4.92262 18.6368 4.83994C18.7178 4.76387 18.8252 4.72253 18.9342 4.72253L18.9324 4.72471ZM34.2009 21.78C33.208 21.78 32.4001 20.9713 32.4001 19.9775C32.4001 16.1279 30.9017 12.5097 28.1824 9.78646C25.8084 7.41023 22.6928 5.9435 19.3669 5.62931V7.09108C19.3669 7.24652 19.2843 7.39039 19.1488 7.4681C19.015 7.54582 18.8482 7.54582 18.7144 7.4681L12.9554 4.13939C12.8216 4.06167 12.7373 3.91781 12.7373 3.76237C12.7373 3.60693 12.8199 3.46307 12.9554 3.38535L18.7144 0.0582884C18.8482 -0.0194295 19.0151 -0.0194295 19.1488 0.0582884C19.2826 0.136006 19.3669 0.279872 19.3669 0.433657V2.01121C23.6541 2.33532 27.6753 4.18074 30.728 7.23671C34.128 10.6398 35.9998 15.1643 35.9998 19.9762C35.9998 20.97 35.1919 21.7786 34.1991 21.7786L34.2009 21.78Z" fill="#0F0D0D"/>
<path d="M18.9324 4.72471L18.1709 4.07655L16.768 5.72471H18.9324V4.72471ZM18.9588 4.72471L19.0206 3.72662L18.9897 3.72471H18.9588V4.72471ZM28.7969 9.17129L29.5044 8.46452L29.5043 8.46449L28.7969 9.17129ZM30.1153 7.85137L30.8228 7.14464L30.8227 7.1446L30.1153 7.85137ZM18.9111 2.85235L18.9635 1.85373L18.9611 1.8536L18.9111 2.85235ZM18.4997 1.18552H19.4997V-0.547285L17.9994 0.319684L18.4997 1.18552ZM14.0442 3.76017L13.5439 2.89433L12.046 3.75989L13.5436 4.62587L14.0442 3.76017ZM18.4997 6.33647L17.9992 7.20217L19.4997 8.06983V6.33647H18.4997ZM18.6368 4.83994L17.9521 4.11118L17.9503 4.11286L18.6368 4.83994ZM18.9342 4.72253L19.6957 5.37069L21.0986 3.72253H18.9342V4.72253ZM34.2009 21.78V22.78H37.2187L34.798 20.9778L34.2009 21.78ZM28.1824 9.78646L28.89 9.07987L28.8899 9.07969L28.1824 9.78646ZM19.3669 5.62931L19.461 4.63374L18.3669 4.53039V5.62931H19.3669ZM19.1488 7.4681L18.6512 6.6007L18.6466 6.60336L19.1488 7.4681ZM18.7144 7.4681L19.2167 6.60339L19.2148 6.60232L18.7144 7.4681ZM12.9554 4.13939L12.4532 5.00413L12.455 5.00517L12.9554 4.13939ZM12.9554 3.38535L13.453 4.25275L13.4556 4.25124L12.9554 3.38535ZM18.7144 0.0582884L19.2146 0.924179L19.2166 0.92303L18.7144 0.0582884ZM19.3669 2.01121H18.3669V2.93847L19.2915 3.00837L19.3669 2.01121ZM30.728 7.23671L30.0205 7.94343L30.0206 7.94348L30.728 7.23671ZM34.1991 21.7786V20.7786H31.1813L33.6019 22.5807L34.1991 21.7786ZM18.9324 4.72471V5.72471H18.9588V4.72471V3.72471H18.9324V4.72471ZM18.9588 4.72471L18.8969 5.7228C22.3614 5.9375 25.6261 7.4125 28.0895 9.87809L28.7969 9.17129L29.5043 8.46449C26.6973 5.65498 22.9739 3.97162 19.0206 3.72662L18.9588 4.72471ZM28.7969 9.17129L28.0895 9.87807C30.785 12.5761 32.269 16.16 32.269 19.9758H33.269H34.269C34.269 15.6299 32.5745 11.5376 29.5044 8.46452L28.7969 9.17129ZM33.269 19.9758H32.269C32.269 21.0414 33.1338 21.9084 34.2007 21.9084V20.9084V19.9084C34.2209 19.9084 34.2392 19.9177 34.2496 19.9281C34.26 19.9386 34.269 19.9565 34.269 19.9758H33.269ZM34.2007 20.9084V21.9084C35.2676 21.9084 36.1325 21.0414 36.1325 19.9758H35.1325H34.1325C34.1325 19.9565 34.1414 19.9386 34.1518 19.9281C34.1623 19.9177 34.1806 19.9084 34.2007 19.9084V20.9084ZM35.1325 19.9758H36.1325C36.1325 15.1305 34.2464 10.5719 30.8228 7.14464L30.1153 7.85137L29.4078 8.55811C32.4567 11.6102 34.1325 15.6603 34.1325 19.9758H35.1325ZM30.1153 7.85137L30.8227 7.1446C27.6482 3.96715 23.4352 2.08855 18.9635 1.85373L18.9111 2.85235L18.8586 3.85098C22.8353 4.0598 26.582 5.72966 29.4078 8.55815L30.1153 7.85137ZM18.9111 2.85235L18.9611 1.8536C19.2692 1.86902 19.4997 2.12336 19.4997 2.41747H18.4997H17.4997C17.4997 3.17456 18.0904 3.81253 18.8611 3.8511L18.9111 2.85235ZM18.4997 2.41747H19.4997V1.18552H18.4997H17.4997V2.41747H18.4997ZM18.4997 1.18552L17.9994 0.319684L13.5439 2.89433L14.0442 3.76017L14.5445 4.62601L19 2.05136L18.4997 1.18552ZM14.0442 3.76017L13.5436 4.62587L17.9992 7.20217L18.4997 6.33647L19.0003 5.47077L14.5448 2.89447L14.0442 3.76017ZM18.4997 6.33647H19.4997V5.15743H18.4997H17.4997V6.33647H18.4997ZM18.4997 5.15743H19.4997C19.4997 5.31365 19.4346 5.462 19.3234 5.56701L18.6368 4.83994L17.9503 4.11286C17.664 4.38323 17.4997 4.75978 17.4997 5.15743H18.4997ZM18.6368 4.83994L19.3216 5.56869C19.2136 5.67018 19.0748 5.72253 18.9342 5.72253V4.72253V3.72253C18.5756 3.72253 18.222 3.85756 17.9521 4.11118L18.6368 4.83994ZM18.9342 4.72253L18.1727 4.07438L18.1709 4.07655L18.9324 4.72471L19.6939 5.37287L19.6957 5.37069L18.9342 4.72253ZM34.2009 21.78V20.78C33.7612 20.78 33.4001 20.4199 33.4001 19.9775H32.4001H31.4001C31.4001 21.5227 32.6548 22.78 34.2009 22.78V21.78ZM32.4001 19.9775H33.4001C33.4001 15.8628 31.7964 11.9905 28.89 9.07987L28.1824 9.78646L27.4748 10.4931C30.007 13.0289 31.4001 16.3931 31.4001 19.9775H32.4001ZM28.1824 9.78646L28.8899 9.07969C26.3517 6.53915 23.0194 4.96989 19.461 4.63374L19.3669 5.62931L19.2729 6.62488C22.3663 6.9171 25.2651 8.2813 27.475 10.4932L28.1824 9.78646ZM19.3669 5.62931H18.3669V7.09108H19.3669H20.3669V5.62931H19.3669ZM19.3669 7.09108H18.3669C18.3669 6.89053 18.474 6.70238 18.6512 6.60071L19.1488 7.4681L19.6465 8.3355C20.0946 8.07839 20.3669 7.60252 20.3669 7.09108H19.3669ZM19.1488 7.4681L18.6466 6.60336C18.8233 6.50075 19.0399 6.50071 19.2167 6.6034L18.7144 7.4681L18.2121 8.33281C18.6565 8.59093 19.2067 8.59089 19.6511 8.33285L19.1488 7.4681ZM18.7144 7.4681L19.2148 6.60232L13.4558 3.27361L12.9554 4.13939L12.455 5.00517L18.214 8.33388L18.7144 7.4681ZM12.9554 4.13939L13.4576 3.27465C13.6272 3.37313 13.7373 3.55599 13.7373 3.76237H12.7373H11.7373C11.7373 4.27962 12.0159 4.75021 12.4532 5.00413L12.9554 4.13939ZM12.7373 3.76237H13.7373C13.7373 3.96293 13.6302 4.15108 13.453 4.25274L12.9554 3.38535L12.4578 2.51796C12.0096 2.77506 11.7373 3.25093 11.7373 3.76237H12.7373ZM12.9554 3.38535L13.4556 4.25124L19.2146 0.924177L18.7144 0.0582884L18.2141 -0.8076L12.4551 2.51946L12.9554 3.38535ZM18.7144 0.0582884L19.2166 0.92303C19.0399 1.02564 18.8234 1.02568 18.6466 0.922996L19.1488 0.0582884L19.6511 -0.806419C19.2067 -1.06454 18.6565 -1.0645 18.2122 -0.806453L18.7144 0.0582884ZM19.1488 0.0582884L18.6466 0.922996C18.4789 0.825623 18.3669 0.643864 18.3669 0.433657H19.3669H20.3669C20.3669 -0.0841195 20.0864 -0.553611 19.6511 -0.806419L19.1488 0.0582884ZM19.3669 0.433657H18.3669V2.01121H19.3669H20.3669V0.433657H19.3669ZM19.3669 2.01121L19.2915 3.00837C23.3398 3.31441 27.1368 5.05662 30.0205 7.94343L30.728 7.23671L31.4355 6.52998C28.2138 3.30486 23.9684 1.35622 19.4423 1.01406L19.3669 2.01121ZM30.728 7.23671L30.0206 7.94348C33.2331 11.159 34.9998 15.4291 34.9998 19.9762H35.9998H36.9998C36.9998 14.8994 35.0229 10.1207 31.4354 6.52993L30.728 7.23671ZM35.9998 19.9762H34.9998C34.9998 20.4186 34.6388 20.7786 34.1991 20.7786V21.7786V22.7786C35.7451 22.7786 36.9998 21.5214 36.9998 19.9762H35.9998ZM34.1991 21.7786L33.6019 22.5807L33.6037 22.5821L34.2009 21.78L34.798 20.9778L34.7962 20.9765L34.1991 21.7786Z" fill="#0F0D0D" mask="url(#path-1-inside-1_3136_41828)"/>
<path d="M0.806641 28.9678L0.758789 28.9404L0.905273 28.8555L0.806641 28.9678Z" fill="#0F0D0D" stroke="#0F0D0D"/>
<mask id="path-4-inside-2_3136_41828" fill="white">
<path fill-rule="evenodd" clip-rule="evenodd" d="M9.90401 33.0855C9.58186 33.0855 9.26797 33.2525 9.09448 33.5518C8.83841 33.9967 8.9904 34.5688 9.43481 34.8268C13.3965 37.1153 18.0139 37.7256 22.4331 36.5383C26.5302 35.4386 30.0555 32.8788 32.3604 29.3253C32.486 29.1318 32.7421 29.069 32.9419 29.1864L34.0075 29.8015V24.6522L29.552 27.2268L30.5713 27.8155C30.6754 27.875 30.7497 27.9759 30.7778 28.0933C30.8043 28.2107 30.7828 28.3331 30.7167 28.434C28.6632 31.5345 25.5506 33.7733 21.9507 34.7394C18.0122 35.796 13.8986 35.2536 10.3663 33.2131C10.2192 33.1287 10.0607 33.0891 9.90204 33.0891L9.90401 33.0855ZM17.9709 37.9999C14.8518 37.9999 11.7742 37.1813 9.00021 35.579C8.13947 35.0812 7.84541 33.9783 8.34104 33.1168C8.83832 32.2552 9.9419 31.9592 10.801 32.457C14.1315 34.3818 18.0106 34.8927 21.726 33.8972C24.9707 33.0274 27.7959 31.0597 29.7303 28.3344L28.4665 27.6034C28.3327 27.5257 28.2484 27.3819 28.2484 27.2264C28.2484 27.071 28.331 26.9271 28.4665 26.8494L34.2255 23.5207C34.3593 23.443 34.5262 23.443 34.66 23.5207C34.7938 23.5984 34.878 23.7423 34.878 23.8977V30.5553C34.878 30.7107 34.7954 30.8546 34.66 30.9307C34.5262 31.0084 34.3593 31.0084 34.2255 30.9307L32.8609 30.1419C30.4373 33.6971 26.8308 36.2602 22.6578 37.3782C21.1065 37.7949 19.5337 38 17.9692 38L17.9709 37.9999Z"/>
</mask>
<path fill-rule="evenodd" clip-rule="evenodd" d="M9.90401 33.0855C9.58186 33.0855 9.26797 33.2525 9.09448 33.5518C8.83841 33.9967 8.9904 34.5688 9.43481 34.8268C13.3965 37.1153 18.0139 37.7256 22.4331 36.5383C26.5302 35.4386 30.0555 32.8788 32.3604 29.3253C32.486 29.1318 32.7421 29.069 32.9419 29.1864L34.0075 29.8015V24.6522L29.552 27.2268L30.5713 27.8155C30.6754 27.875 30.7497 27.9759 30.7778 28.0933C30.8043 28.2107 30.7828 28.3331 30.7167 28.434C28.6632 31.5345 25.5506 33.7733 21.9507 34.7394C18.0122 35.796 13.8986 35.2536 10.3663 33.2131C10.2192 33.1287 10.0607 33.0891 9.90204 33.0891L9.90401 33.0855ZM17.9709 37.9999C14.8518 37.9999 11.7742 37.1813 9.00021 35.579C8.13947 35.0812 7.84541 33.9783 8.34104 33.1168C8.83832 32.2552 9.9419 31.9592 10.801 32.457C14.1315 34.3818 18.0106 34.8927 21.726 33.8972C24.9707 33.0274 27.7959 31.0597 29.7303 28.3344L28.4665 27.6034C28.3327 27.5257 28.2484 27.3819 28.2484 27.2264C28.2484 27.071 28.331 26.9271 28.4665 26.8494L34.2255 23.5207C34.3593 23.443 34.5262 23.443 34.66 23.5207C34.7938 23.5984 34.878 23.7423 34.878 23.8977V30.5553C34.878 30.7107 34.7954 30.8546 34.66 30.9307C34.5262 31.0084 34.3593 31.0084 34.2255 30.9307L32.8609 30.1419C30.4373 33.6971 26.8308 36.2602 22.6578 37.3782C21.1065 37.7949 19.5337 38 17.9692 38L17.9709 37.9999Z" fill="#0F0D0D"/>
<path d="M9.90401 33.0855L10.7773 33.5726L11.6068 32.0855H9.90401V33.0855ZM9.09448 33.5518L8.2293 33.0504L8.22782 33.0529L9.09448 33.5518ZM9.43481 34.8268L8.93277 35.6916L8.93459 35.6927L9.43481 34.8268ZM22.4331 36.5383L22.1738 35.5724L22.1736 35.5725L22.4331 36.5383ZM32.3604 29.3253L31.5216 28.7809L31.5215 28.7811L32.3604 29.3253ZM32.9419 29.1864L32.4355 30.0487L32.442 30.0524L32.9419 29.1864ZM34.0075 29.8015L33.5076 30.6675L35.0075 31.5334V29.8015H34.0075ZM34.0075 24.6522H35.0075V22.9194L33.5072 23.7864L34.0075 24.6522ZM29.552 27.2268L29.0516 26.361L27.5528 27.2271L29.0519 28.0928L29.552 27.2268ZM30.5713 27.8155L30.0712 28.6815L30.0748 28.6836L30.5713 27.8155ZM30.7778 28.0933L31.7535 27.8737L31.7504 27.8607L30.7778 28.0933ZM30.7167 28.434L31.5504 28.9862L31.5532 28.982L30.7167 28.434ZM21.9507 34.7394L22.2098 35.7052L22.2099 35.7052L21.9507 34.7394ZM10.3663 33.2131L10.8665 32.3472L10.8638 32.3456L10.3663 33.2131ZM9.90204 33.0891L9.02869 32.6019L8.19926 34.0891H9.90204V33.0891ZM17.9709 37.9999L18.0193 38.9987L17.9709 36.9999V37.9999ZM9.00021 35.579L8.49961 36.4447L8.50002 36.4449L9.00021 35.579ZM8.34104 33.1168L7.47495 32.6169L7.47424 32.6181L8.34104 33.1168ZM10.801 32.457L10.2996 33.3222L10.3006 33.3228L10.801 32.457ZM21.726 33.8972L21.9848 34.8632L21.9849 34.8631L21.726 33.8972ZM29.7303 28.3344L30.5458 28.9132L31.1811 28.0182L30.231 27.4687L29.7303 28.3344ZM28.4665 27.6034L27.9643 28.4682L27.9659 28.4691L28.4665 27.6034ZM28.4665 26.8494L28.9641 27.7168L28.9669 27.7152L28.4665 26.8494ZM34.2255 23.5207L34.7259 24.3865L34.7277 24.3854L34.2255 23.5207ZM34.66 23.5207L34.1577 24.3854L34.1578 24.3854L34.66 23.5207ZM34.66 30.9307L34.1704 30.0587L34.164 30.0623L34.1578 30.0659L34.66 30.9307ZM34.2255 30.9307L34.7278 30.066L34.7259 30.0649L34.2255 30.9307ZM32.8609 30.1419L33.3613 29.2761L32.5575 28.8115L32.0346 29.5786L32.8609 30.1419ZM22.6578 37.3782L22.399 36.4122L22.3983 36.4124L22.6578 37.3782ZM17.9692 38L17.9208 37.0011L17.9692 39V38ZM9.90401 33.0855V32.0855C9.23978 32.0855 8.58883 32.4301 8.2293 33.0504L9.09448 33.5518L9.95967 34.0533C9.95449 34.0622 9.94533 34.0715 9.9346 34.0775C9.92527 34.0828 9.91514 34.0855 9.90401 34.0855V33.0855ZM9.09448 33.5518L8.22782 33.0529C7.69765 33.9739 8.0107 35.1564 8.93277 35.6916L9.43481 34.8268L9.93685 33.9619C9.95425 33.972 9.96477 33.9888 9.96823 34.0018C9.97166 34.0147 9.97089 34.0338 9.96114 34.0508L9.09448 33.5518ZM9.43481 34.8268L8.93459 35.6927C13.1257 38.1138 18.0164 38.7603 22.6925 37.504L22.4331 36.5383L22.1736 35.5725C18.0114 36.6908 13.6672 36.1169 9.93502 33.9609L9.43481 34.8268ZM22.4331 36.5383L22.6923 37.5041C27.0274 36.3405 30.7595 33.631 33.1994 29.8694L32.3604 29.3253L31.5215 28.7811C29.3514 32.1267 26.033 34.5366 22.1738 35.5724L22.4331 36.5383ZM32.3604 29.3253L33.1993 29.8697C33.0379 30.1182 32.7037 30.2062 32.4355 30.0486L32.9419 29.1864L33.4484 28.3241C32.7804 27.9317 31.934 28.1454 31.5216 28.7809L32.3604 29.3253ZM32.9419 29.1864L32.442 30.0524L33.5076 30.6675L34.0075 29.8015L34.5075 28.9354L33.4419 28.3203L32.9419 29.1864ZM34.0075 29.8015H35.0075V24.6522H34.0075H33.0075V29.8015H34.0075ZM34.0075 24.6522L33.5072 23.7864L29.0516 26.361L29.552 27.2268L30.0523 28.0927L34.5078 25.518L34.0075 24.6522ZM29.552 27.2268L29.0519 28.0928L30.0712 28.6815L30.5713 27.8155L31.0714 26.9496L30.0521 26.3609L29.552 27.2268ZM30.5713 27.8155L30.0748 28.6836C29.9332 28.6026 29.8397 28.4701 29.8053 28.326L30.7778 28.0933L31.7504 27.8607C31.6598 27.4818 31.4176 27.1475 31.0678 26.9475L30.5713 27.8155ZM30.7778 28.0933L29.8022 28.313C29.7701 28.1701 29.7958 28.0149 29.8802 27.886L30.7167 28.434L31.5532 28.982C31.7698 28.6513 31.8384 28.2514 31.7534 27.8737L30.7778 28.0933ZM30.7167 28.434L29.883 27.8818C27.9645 30.7784 25.0565 32.8706 21.6915 33.7735L21.9507 34.7394L22.2099 35.7052C26.0448 34.6761 29.3619 32.2905 31.5504 28.9862L30.7167 28.434ZM21.9507 34.7394L21.6916 33.7735C18.0096 34.7613 14.1692 34.2551 10.8665 32.3472L10.3663 33.2131L9.86607 34.079C13.628 36.2522 18.0147 36.8307 22.2098 35.7052L21.9507 34.7394ZM10.3663 33.2131L10.8638 32.3456C10.5614 32.1721 10.2306 32.0891 9.90204 32.0891V33.0891V34.0891C9.89765 34.0891 9.89143 34.0885 9.8843 34.0866C9.87702 34.0847 9.87161 34.0822 9.86875 34.0805L10.3663 33.2131ZM9.90204 33.0891L10.7754 33.5762L10.7773 33.5726L9.90401 33.0855L9.03067 32.5984L9.02869 32.6019L9.90204 33.0891ZM17.9709 37.9999V36.9999C15.0285 36.9999 12.1232 36.2281 9.5004 34.7131L9.00021 35.579L8.50002 36.4449C11.4252 38.1346 14.6752 38.9999 17.9709 38.9999V37.9999ZM9.00021 35.579L9.50081 34.7133C9.11899 34.4925 8.98626 34.0006 9.20784 33.6154L8.34104 33.1168L7.47424 32.6181C6.70456 33.956 7.15996 35.67 8.49961 36.4447L9.00021 35.579ZM8.34104 33.1168L9.20712 33.6167C9.4289 33.2324 9.92056 33.1026 10.2996 33.3222L10.801 32.457L11.3023 31.5917C9.96324 30.8159 8.24774 31.278 7.47495 32.6169L8.34104 33.1168ZM10.801 32.457L10.3006 33.3228C13.861 35.3804 18.0132 35.9273 21.9848 34.8632L21.726 33.8972L21.4672 32.9313C18.008 33.8581 14.402 33.3831 11.3013 31.5912L10.801 32.457ZM21.726 33.8972L21.9849 34.8631C25.4544 33.9331 28.4765 31.8285 30.5458 28.9132L29.7303 28.3344L28.9149 27.7555C27.1153 30.2908 24.4869 32.1218 21.4671 32.9313L21.726 33.8972ZM29.7303 28.3344L30.231 27.4687L28.9671 26.7378L28.4665 27.6034L27.9659 28.4691L29.2297 29.2L29.7303 28.3344ZM28.4665 27.6034L28.9687 26.7387C29.1383 26.8372 29.2484 27.02 29.2484 27.2264H28.2484H27.2484C27.2484 27.7437 27.5271 28.2143 27.9643 28.4682L28.4665 27.6034ZM28.2484 27.2264H29.2484C29.2484 27.427 29.1413 27.6151 28.9641 27.7168L28.4665 26.8494L27.9689 25.982C27.5207 26.2391 27.2484 26.715 27.2484 27.2264H28.2484ZM28.4665 26.8494L28.9669 27.7152L34.7259 24.3865L34.2255 23.5207L33.7251 22.6549L27.9661 25.9836L28.4665 26.8494ZM34.2255 23.5207L34.7277 24.3854C34.551 24.488 34.3345 24.4881 34.1577 24.3854L34.66 23.5207L35.1622 22.656C34.7179 22.3979 34.1676 22.3979 33.7233 22.6559L34.2255 23.5207ZM34.66 23.5207L34.1578 24.3854C33.9882 24.2869 33.878 24.1041 33.878 23.8977H34.878H35.878C35.878 23.3805 35.5994 22.9099 35.1622 22.6559L34.66 23.5207ZM34.878 23.8977H33.878V30.5553H34.878H35.878V23.8977H34.878ZM34.878 30.5553H33.878C33.878 30.3565 33.9843 30.1632 34.1704 30.0587L34.66 30.9307L35.1496 31.8026C35.6066 31.546 35.878 31.065 35.878 30.5553H34.878ZM34.66 30.9307L34.1578 30.0659C34.3344 29.9633 34.551 29.9633 34.7278 30.066L34.2255 30.9307L33.7232 31.7954C34.1676 32.0535 34.7179 32.0535 35.1622 31.7954L34.66 30.9307ZM34.2255 30.9307L34.7259 30.0649L33.3613 29.2761L32.8609 30.1419L32.3604 31.0077L33.7251 31.7964L34.2255 30.9307ZM32.8609 30.1419L32.0346 29.5786C29.7459 32.9361 26.3407 35.3562 22.399 36.4122L22.6578 37.3782L22.9165 38.3441C27.3209 37.1641 31.1287 34.4582 33.6872 30.7052L32.8609 30.1419ZM22.6578 37.3782L22.3983 36.4124C20.9315 36.8064 19.446 37 17.9692 37V38V39C19.6214 39 21.2814 38.7833 22.9172 38.3439L22.6578 37.3782ZM17.9692 38L18.0175 38.9988L18.0193 38.9987L17.9709 37.9999L17.9226 37.001L17.9208 37.0011L17.9692 38Z" fill="#0F0D0D" mask="url(#path-4-inside-2_3136_41828)"/>
<mask id="path-6-inside-3_3136_41828" fill="white">
<path fill-rule="evenodd" clip-rule="evenodd" d="M16.4499 30.5029H19.5508V28.6294C19.5508 28.4293 19.688 28.254 19.8812 28.2077C20.6511 28.0192 21.3846 27.7133 22.0653 27.2999C22.2371 27.1957 22.4568 27.2222 22.5972 27.3644L23.9222 28.6905L26.1161 26.4962L24.7912 25.17C24.6491 25.0278 24.6227 24.8079 24.7267 24.6376C25.1381 23.9563 25.4437 23.2221 25.6321 22.4515C25.68 22.2564 25.8534 22.1191 26.055 22.1191H27.9268V19.0153H26.055C25.8551 19.0153 25.68 18.8781 25.6337 18.6829C25.4454 17.914 25.1397 17.1782 24.7267 16.4969C24.6227 16.3249 24.6491 16.105 24.7912 15.9644L26.1161 14.6382L23.9222 12.4422L22.5972 13.7684C22.4568 13.9106 22.2354 13.9371 22.0653 13.8329C21.3846 13.4212 20.6495 13.1152 19.8812 12.9251C19.6863 12.8771 19.5492 12.7035 19.5492 12.5034V10.6299H16.4483V12.5034C16.4483 12.7035 16.3112 12.8788 16.1162 12.9251C15.348 13.1153 14.6128 13.4195 13.9322 13.8329C13.7604 13.9371 13.5406 13.9106 13.4002 13.7684L12.0753 12.4422L9.88299 14.6382L11.2079 15.9627C11.3484 16.105 11.3764 16.3249 11.2724 16.4952C10.861 17.1765 10.5554 17.9107 10.3654 18.6813C10.3175 18.8764 10.144 19.0137 9.94412 19.0137H8.07233V22.1175H9.94412C10.144 22.1175 10.3175 22.2547 10.3654 22.4498C10.5537 23.2188 10.8594 23.9546 11.2724 24.6359C11.3764 24.8079 11.35 25.0278 11.2079 25.1684L9.88299 26.4946L12.0753 28.6889L13.4002 27.3627C13.5423 27.2222 13.762 27.1957 13.9322 27.2982C14.6128 27.71 15.3464 28.0159 16.1162 28.206C16.3112 28.254 16.4483 28.4276 16.4483 28.6277V30.5012L16.4499 30.5029ZM19.9853 31.3727H16.0155C15.7759 31.3727 15.581 31.1776 15.581 30.9378V28.9634C14.9548 28.7832 14.3519 28.5335 13.7802 28.216L12.3859 29.6133C12.2157 29.7836 11.9398 29.7836 11.7713 29.6133L8.96285 26.8022C8.8819 26.7211 8.83564 26.6103 8.83564 26.4946C8.83564 26.3789 8.8819 26.2681 8.96285 26.187L10.3588 24.7897C10.0433 24.2176 9.79221 23.614 9.61213 22.9873H7.63955C7.4 22.9873 7.20508 22.7922 7.20508 22.5524V18.5788C7.20508 18.339 7.40002 18.1439 7.63955 18.1439H9.61213C9.7922 17.5172 10.0417 16.9137 10.3588 16.3415L8.9645 14.9442C8.88355 14.8632 8.83729 14.7524 8.83729 14.6366C8.83729 14.5209 8.88355 14.4101 8.9645 14.3291L11.773 11.518C11.8539 11.4369 11.9646 11.3906 12.0803 11.3906C12.1959 11.3906 12.3066 11.4353 12.3876 11.518L13.7836 12.9153C14.3552 12.5994 14.9581 12.3481 15.5843 12.1678V10.1934C15.5843 9.95365 15.7792 9.75854 16.0188 9.75854H19.9903C20.2299 9.75854 20.4248 9.95367 20.4248 10.1934V12.1678C21.0509 12.3481 21.6539 12.5978 22.2255 12.9153L23.6215 11.518C23.7917 11.3493 24.0659 11.3493 24.2361 11.518L27.0446 14.3291C27.1255 14.4101 27.1718 14.5209 27.1718 14.6366C27.1718 14.7507 27.1272 14.8632 27.0446 14.9442L25.6486 16.3415C25.9641 16.9137 26.2152 17.5172 26.3953 18.1439H28.3679C28.6074 18.1439 28.8023 18.3391 28.8023 18.5788V22.5524C28.8023 22.7922 28.6074 22.9873 28.3679 22.9873H26.3953C26.2152 23.614 25.9658 24.2176 25.6486 24.7897L27.0446 26.187C27.1255 26.2681 27.1718 26.3789 27.1718 26.4946C27.1718 26.6087 27.1272 26.7211 27.0446 26.8022L24.2361 29.6133C24.0659 29.7836 23.79 29.7836 23.6215 29.6133L22.2255 28.216C21.6539 28.5335 21.0509 28.7832 20.4264 28.9634V30.9378C20.4264 31.1776 20.2315 31.3727 19.992 31.3727H19.9853Z"/>
</mask>
<path fill-rule="evenodd" clip-rule="evenodd" d="M16.4499 30.5029H19.5508V28.6294C19.5508 28.4293 19.688 28.254 19.8812 28.2077C20.6511 28.0192 21.3846 27.7133 22.0653 27.2999C22.2371 27.1957 22.4568 27.2222 22.5972 27.3644L23.9222 28.6905L26.1161 26.4962L24.7912 25.17C24.6491 25.0278 24.6227 24.8079 24.7267 24.6376C25.1381 23.9563 25.4437 23.2221 25.6321 22.4515C25.68 22.2564 25.8534 22.1191 26.055 22.1191H27.9268V19.0153H26.055C25.8551 19.0153 25.68 18.8781 25.6337 18.6829C25.4454 17.914 25.1397 17.1782 24.7267 16.4969C24.6227 16.3249 24.6491 16.105 24.7912 15.9644L26.1161 14.6382L23.9222 12.4422L22.5972 13.7684C22.4568 13.9106 22.2354 13.9371 22.0653 13.8329C21.3846 13.4212 20.6495 13.1152 19.8812 12.9251C19.6863 12.8771 19.5492 12.7035 19.5492 12.5034V10.6299H16.4483V12.5034C16.4483 12.7035 16.3112 12.8788 16.1162 12.9251C15.348 13.1153 14.6128 13.4195 13.9322 13.8329C13.7604 13.9371 13.5406 13.9106 13.4002 13.7684L12.0753 12.4422L9.88299 14.6382L11.2079 15.9627C11.3484 16.105 11.3764 16.3249 11.2724 16.4952C10.861 17.1765 10.5554 17.9107 10.3654 18.6813C10.3175 18.8764 10.144 19.0137 9.94412 19.0137H8.07233V22.1175H9.94412C10.144 22.1175 10.3175 22.2547 10.3654 22.4498C10.5537 23.2188 10.8594 23.9546 11.2724 24.6359C11.3764 24.8079 11.35 25.0278 11.2079 25.1684L9.88299 26.4946L12.0753 28.6889L13.4002 27.3627C13.5423 27.2222 13.762 27.1957 13.9322 27.2982C14.6128 27.71 15.3464 28.0159 16.1162 28.206C16.3112 28.254 16.4483 28.4276 16.4483 28.6277V30.5012L16.4499 30.5029ZM19.9853 31.3727H16.0155C15.7759 31.3727 15.581 31.1776 15.581 30.9378V28.9634C14.9548 28.7832 14.3519 28.5335 13.7802 28.216L12.3859 29.6133C12.2157 29.7836 11.9398 29.7836 11.7713 29.6133L8.96285 26.8022C8.8819 26.7211 8.83564 26.6103 8.83564 26.4946C8.83564 26.3789 8.8819 26.2681 8.96285 26.187L10.3588 24.7897C10.0433 24.2176 9.79221 23.614 9.61213 22.9873H7.63955C7.4 22.9873 7.20508 22.7922 7.20508 22.5524V18.5788C7.20508 18.339 7.40002 18.1439 7.63955 18.1439H9.61213C9.7922 17.5172 10.0417 16.9137 10.3588 16.3415L8.9645 14.9442C8.88355 14.8632 8.83729 14.7524 8.83729 14.6366C8.83729 14.5209 8.88355 14.4101 8.9645 14.3291L11.773 11.518C11.8539 11.4369 11.9646 11.3906 12.0803 11.3906C12.1959 11.3906 12.3066 11.4353 12.3876 11.518L13.7836 12.9153C14.3552 12.5994 14.9581 12.3481 15.5843 12.1678V10.1934C15.5843 9.95365 15.7792 9.75854 16.0188 9.75854H19.9903C20.2299 9.75854 20.4248 9.95367 20.4248 10.1934V12.1678C21.0509 12.3481 21.6539 12.5978 22.2255 12.9153L23.6215 11.518C23.7917 11.3493 24.0659 11.3493 24.2361 11.518L27.0446 14.3291C27.1255 14.4101 27.1718 14.5209 27.1718 14.6366C27.1718 14.7507 27.1272 14.8632 27.0446 14.9442L25.6486 16.3415C25.9641 16.9137 26.2152 17.5172 26.3953 18.1439H28.3679C28.6074 18.1439 28.8023 18.3391 28.8023 18.5788V22.5524C28.8023 22.7922 28.6074 22.9873 28.3679 22.9873H26.3953C26.2152 23.614 25.9658 24.2176 25.6486 24.7897L27.0446 26.187C27.1255 26.2681 27.1718 26.3789 27.1718 26.4946C27.1718 26.6087 27.1272 26.7211 27.0446 26.8022L24.2361 29.6133C24.0659 29.7836 23.79 29.7836 23.6215 29.6133L22.2255 28.216C21.6539 28.5335 21.0509 28.7832 20.4264 28.9634V30.9378C20.4264 31.1776 20.2315 31.3727 19.992 31.3727H19.9853Z" fill="#0F0D0D" stroke="#0F0D0D" stroke-width="2" mask="url(#path-6-inside-3_3136_41828)"/>
<mask id="path-7-inside-4_3136_41828" fill="white">
<path fill-rule="evenodd" clip-rule="evenodd" d="M18.001 14.8266C16.1986 16.93 15.0026 18.878 14.4408 20.6211C13.9584 22.1226 13.9667 23.4587 14.4656 24.4889C15.1099 25.8183 16.5968 26.617 18.2554 26.5261C19.8183 26.4385 21.0739 25.61 21.6174 24.3103C22.1757 22.9742 22.4236 19.984 18.001 14.8266ZM17.9961 27.4023C16.1111 27.4023 14.4409 26.43 13.6843 24.869C12.9277 23.308 12.442 19.8039 17.6757 13.8757C17.7583 13.7814 17.8773 13.7285 18.0012 13.7285C18.1251 13.7285 18.244 13.7814 18.3266 13.8757C20.3289 16.1428 21.6754 18.2626 22.3312 20.1811C22.9144 21.8876 22.9441 23.3891 22.4204 24.6459C21.7563 26.2366 20.1802 27.29 18.3052 27.3942C18.2027 27.4008 18.0986 27.4024 17.9979 27.4024L17.9961 27.4023Z"/>
</mask>
<path fill-rule="evenodd" clip-rule="evenodd" d="M18.001 14.8266C16.1986 16.93 15.0026 18.878 14.4408 20.6211C13.9584 22.1226 13.9667 23.4587 14.4656 24.4889C15.1099 25.8183 16.5968 26.617 18.2554 26.5261C19.8183 26.4385 21.0739 25.61 21.6174 24.3103C22.1757 22.9742 22.4236 19.984 18.001 14.8266ZM17.9961 27.4023C16.1111 27.4023 14.4409 26.43 13.6843 24.869C12.9277 23.308 12.442 19.8039 17.6757 13.8757C17.7583 13.7814 17.8773 13.7285 18.0012 13.7285C18.1251 13.7285 18.244 13.7814 18.3266 13.8757C20.3289 16.1428 21.6754 18.2626 22.3312 20.1811C22.9144 21.8876 22.9441 23.3891 22.4204 24.6459C21.7563 26.2366 20.1802 27.29 18.3052 27.3942C18.2027 27.4008 18.0986 27.4024 17.9979 27.4024L17.9961 27.4023Z" fill="#0F0D0D"/>
<path d="M18.001 14.8266L18.7601 14.1757L18.0008 13.2901L17.2417 14.176L18.001 14.8266ZM14.4408 20.6211L13.489 20.3144L13.4888 20.3152L14.4408 20.6211ZM14.4656 24.4889L13.5656 24.9247L13.5657 24.925L14.4656 24.4889ZM18.2554 26.5261L18.3102 27.5246L18.3114 27.5245L18.2554 26.5261ZM21.6174 24.3103L22.5399 24.696L22.54 24.6959L21.6174 24.3103ZM17.9961 27.4023L18.0733 26.4053L18.0348 26.4023H17.9961V27.4023ZM13.6843 24.869L14.5842 24.4328L14.5842 24.4328L13.6843 24.869ZM17.6757 13.8757L18.4254 14.5375L18.4278 14.5348L17.6757 13.8757ZM18.3266 13.8757L17.5745 14.5348L17.5771 14.5377L18.3266 13.8757ZM22.3312 20.1811L23.2775 19.8577L23.2775 19.8576L22.3312 20.1811ZM22.4204 24.6459L23.3433 25.0311L23.3435 25.0305L22.4204 24.6459ZM18.3052 27.3942L18.2497 26.3957L18.2407 26.3962L18.3052 27.3942ZM17.9979 27.4024L17.9206 28.3994L17.9592 28.4024H17.9979V27.4024ZM18.001 14.8266L17.2417 14.176C15.3927 16.3338 14.1067 18.3976 13.489 20.3144L14.4408 20.6211L15.3926 20.9278C15.8984 19.3584 17.0046 17.5263 18.7604 15.4773L18.001 14.8266ZM14.4408 20.6211L13.4888 20.3152C12.9579 21.9674 12.9179 23.5874 13.5656 24.9247L14.4656 24.4889L15.3656 24.053C15.0154 23.3299 14.9589 22.2777 15.3929 20.927L14.4408 20.6211ZM14.4656 24.4889L13.5657 24.925C14.4124 26.672 16.3136 27.634 18.3102 27.5246L18.2554 26.5261L18.2007 25.5276C16.88 25.6 15.8074 24.9646 15.3655 24.0528L14.4656 24.4889ZM18.2554 26.5261L18.3114 27.5245C20.2042 27.4184 21.8295 26.395 22.5399 24.696L21.6174 24.3103L20.6948 23.9245C20.3182 24.825 19.4323 25.4585 18.1994 25.5277L18.2554 26.5261ZM21.6174 24.3103L22.54 24.6959C23.3032 22.8699 23.31 19.4815 18.7601 14.1757L18.001 14.8266L17.2419 15.4776C21.5371 20.4864 21.0483 23.0785 20.6947 23.9246L21.6174 24.3103ZM17.9961 27.4023V26.4023C16.4465 26.4023 15.1537 25.608 14.5842 24.4328L13.6843 24.869L12.7844 25.3051C13.728 27.2519 15.7756 28.4023 17.9961 28.4023V27.4023ZM13.6843 24.869L14.5842 24.4328C14.3057 23.8583 14.0226 22.8291 14.4056 21.2451C14.7939 19.6394 15.8777 17.4232 18.4254 14.5375L17.6757 13.8757L16.9261 13.2139C14.24 16.2564 12.9498 18.7563 12.4616 20.775C11.9683 22.8153 12.3063 24.3186 12.7845 25.3051L13.6843 24.869ZM17.6757 13.8757L18.4278 14.5348C18.3181 14.66 18.1616 14.7285 18.0012 14.7285V13.7285V12.7285C17.5929 12.7285 17.1986 12.9029 16.9236 13.2166L17.6757 13.8757ZM18.0012 13.7285V14.7285C17.8407 14.7285 17.6843 14.66 17.5745 14.5348L18.3266 13.8757L19.0787 13.2166C18.8038 12.9029 18.4094 12.7285 18.0012 12.7285V13.7285ZM18.3266 13.8757L17.5771 14.5377C19.5311 16.7501 20.7874 18.7564 21.385 20.5046L22.3312 20.1811L23.2775 19.8576C22.5633 17.7687 21.1267 15.5355 19.0761 13.2137L18.3266 13.8757ZM22.3312 20.1811L21.385 20.5045C21.9152 22.056 21.9003 23.2942 21.4974 24.2612L22.4204 24.6459L23.3435 25.0305C23.9879 23.4839 23.9136 21.7191 23.2775 19.8577L22.3312 20.1811ZM22.4204 24.6459L21.4976 24.2606C20.9969 25.46 19.7845 26.3104 18.2497 26.3957L18.3052 27.3942L18.3606 28.3926C20.5759 28.2695 22.5157 27.0133 23.3433 25.0311L22.4204 24.6459ZM18.3052 27.3942L18.2407 26.3962C18.1692 26.4009 18.0894 26.4024 17.9979 26.4024V27.4024V28.4024C18.1079 28.4024 18.2363 28.4007 18.3696 28.3921L18.3052 27.3942ZM17.9979 27.4024L18.0751 26.4054L18.0733 26.4053L17.9961 27.4023L17.9188 28.3993L17.9206 28.3994L17.9979 27.4024Z" fill="#0F0D0D" mask="url(#path-7-inside-4_3136_41828)"/>
<mask id="path-9-inside-5_3136_41828" fill="white">
<path fill-rule="evenodd" clip-rule="evenodd" d="M18.0013 27.4024C17.7615 27.4024 17.5664 27.2073 17.5664 26.9676V20.1182C17.5664 19.8768 17.7615 19.6833 18.0013 19.6833C18.241 19.6833 18.4362 19.8768 18.4362 20.1182V26.9676C18.4362 27.2073 18.241 27.4024 18.0013 27.4024Z"/>
</mask>
<path fill-rule="evenodd" clip-rule="evenodd" d="M18.0013 27.4024C17.7615 27.4024 17.5664 27.2073 17.5664 26.9676V20.1182C17.5664 19.8768 17.7615 19.6833 18.0013 19.6833C18.241 19.6833 18.4362 19.8768 18.4362 20.1182V26.9676C18.4362 27.2073 18.241 27.4024 18.0013 27.4024Z" fill="#0F0D0D"/>
<path d="M18.0013 27.4024V26.4024C18.3138 26.4024 18.5664 26.6551 18.5664 26.9676H17.5664H16.5664C16.5664 27.7596 17.2092 28.4024 18.0013 28.4024V27.4024ZM17.5664 26.9676H18.5664V20.1182H17.5664H16.5664V26.9676H17.5664ZM17.5664 20.1182H18.5664C18.5664 20.4316 18.3113 20.6833 18.0013 20.6833V19.6833V18.6833C17.2118 18.6833 16.5664 19.322 16.5664 20.1182H17.5664ZM18.0013 19.6833V20.6833C17.6912 20.6833 17.4362 20.4316 17.4362 20.1182H18.4362H19.4362C19.4362 19.3221 18.7908 18.6833 18.0013 18.6833V19.6833ZM18.4362 20.1182H17.4362V26.9676H18.4362H19.4362V20.1182H18.4362ZM18.4362 26.9676H17.4362C17.4362 26.655 17.6888 26.4024 18.0013 26.4024V27.4024V28.4024C18.7933 28.4024 19.4362 27.7597 19.4362 26.9676H18.4362Z" fill="#0F0D0D" mask="url(#path-9-inside-5_3136_41828)"/>
<mask id="path-11-inside-6_3136_41828" fill="white">
<path fill-rule="evenodd" clip-rule="evenodd" d="M18.0008 22.6846C17.9049 22.6846 17.8091 22.6532 17.7282 22.5887L15.8168 21.0442C15.6301 20.8937 15.6003 20.6192 15.7507 20.4324C15.901 20.2455 16.1752 20.2158 16.3619 20.3662L18.275 21.9107C18.4617 22.0612 18.4914 22.3357 18.3394 22.5225C18.2535 22.6284 18.128 22.6846 18.0008 22.6846Z"/>
</mask>
<path fill-rule="evenodd" clip-rule="evenodd" d="M18.0008 22.6846C17.9049 22.6846 17.8091 22.6532 17.7282 22.5887L15.8168 21.0442C15.6301 20.8937 15.6003 20.6192 15.7507 20.4324C15.901 20.2455 16.1752 20.2158 16.3619 20.3662L18.275 21.9107C18.4617 22.0612 18.4914 22.3357 18.3394 22.5225C18.2535 22.6284 18.128 22.6846 18.0008 22.6846Z" fill="#0F0D0D"/>
<path d="M17.7282 22.5887L17.0997 23.3665L17.1051 23.3708L17.7282 22.5887ZM15.8168 21.0442L16.4452 20.2664L16.4443 20.2657L15.8168 21.0442ZM15.7507 20.4324L16.5298 21.0592L16.5298 21.0592L15.7507 20.4324ZM16.3619 20.3662L16.9901 19.5882L16.9895 19.5877L16.3619 20.3662ZM18.275 21.9107L17.6468 22.6888L17.6474 22.6893L18.275 21.9107ZM18.3394 22.5225L17.5637 21.8915L17.563 21.8923L18.3394 22.5225ZM18.0008 22.6846V21.6846C18.1262 21.6846 18.2512 21.7268 18.3513 21.8065L17.7282 22.5887L17.1051 23.3708C17.367 23.5795 17.6837 23.6846 18.0008 23.6846V22.6846ZM17.7282 22.5887L18.3567 21.8108L16.4452 20.2664L15.8168 21.0442L15.1883 21.822L17.0997 23.3665L17.7282 22.5887ZM15.8168 21.0442L16.4443 20.2657C16.687 20.4612 16.7258 20.8157 16.5298 21.0592L15.7507 20.4324L14.9715 19.8055C14.4749 20.4228 14.5732 21.3262 15.1892 21.8228L15.8168 21.0442ZM15.7507 20.4324L16.5298 21.0592C16.3343 21.3023 15.9786 21.3417 15.7344 21.1448L16.3619 20.3662L16.9895 19.5877C16.3719 19.0898 15.4678 19.1888 14.9715 19.8055L15.7507 20.4324ZM16.3619 20.3662L15.7338 21.1443L17.6468 22.6888L18.275 21.9107L18.9032 21.1326L16.9901 19.5882L16.3619 20.3662ZM18.275 21.9107L17.6474 22.6893C17.4044 22.4933 17.3647 22.136 17.5637 21.8915L18.3394 22.5225L19.1152 23.1535C19.6181 22.5353 19.519 21.629 18.9026 21.1321L18.275 21.9107ZM18.3394 22.5225L17.563 21.8923C17.6716 21.7586 17.834 21.6846 18.0008 21.6846V22.6846V23.6846C18.4219 23.6846 18.8355 23.4982 19.1158 23.1527L18.3394 22.5225Z" fill="#0F0D0D" mask="url(#path-11-inside-6_3136_41828)"/>
<mask id="path-13-inside-7_3136_41828" fill="white">
<path fill-rule="evenodd" clip-rule="evenodd" d="M18.0009 22.6846C17.8737 22.6846 17.7481 22.63 17.6622 22.5225C17.5119 22.3357 17.54 22.0612 17.7266 21.9107L19.6397 20.3662C19.8264 20.2158 20.1006 20.2455 20.2493 20.4324C20.3997 20.6192 20.3716 20.8937 20.1849 21.0442L18.2735 22.5887C18.1925 22.6532 18.0967 22.6846 18.0009 22.6846Z"/>
</mask>
<path fill-rule="evenodd" clip-rule="evenodd" d="M18.0009 22.6846C17.8737 22.6846 17.7481 22.63 17.6622 22.5225C17.5119 22.3357 17.54 22.0612 17.7266 21.9107L19.6397 20.3662C19.8264 20.2158 20.1006 20.2455 20.2493 20.4324C20.3997 20.6192 20.3716 20.8937 20.1849 21.0442L18.2735 22.5887C18.1925 22.6532 18.0967 22.6846 18.0009 22.6846Z" fill="#0F0D0D"/>
<path d="M17.6622 22.5225L18.4434 21.8982L18.4414 21.8957L17.6622 22.5225ZM17.7266 21.9107L18.3543 22.6892L18.3548 22.6888L17.7266 21.9107ZM19.6397 20.3662L19.0121 19.5877L19.0116 19.5882L19.6397 20.3662ZM20.2493 20.4324L19.4668 21.0551L19.4702 21.0592L20.2493 20.4324ZM20.1849 21.0442L19.5573 20.2657L19.5564 20.2664L20.1849 21.0442ZM18.2735 22.5887L18.8966 23.3708L18.902 23.3665L18.2735 22.5887ZM18.0009 22.6846V21.6846C18.1602 21.6846 18.3289 21.7549 18.4434 21.8982L17.6622 22.5225L16.8811 23.1469C17.1674 23.5051 17.5872 23.6846 18.0009 23.6846V22.6846ZM17.6622 22.5225L18.4414 21.8957C18.633 22.1338 18.6022 22.4893 18.3543 22.6892L17.7266 21.9107L17.099 21.1322C16.4777 21.633 16.3908 22.5375 16.8831 23.1494L17.6622 22.5225ZM17.7266 21.9107L18.3548 22.6888L20.2679 21.1443L19.6397 20.3662L19.0116 19.5882L17.0985 21.1326L17.7266 21.9107ZM19.6397 20.3662L20.2673 21.1448C20.025 21.3401 19.6659 21.3052 19.4668 21.0551L20.2493 20.4324L21.0318 19.8097C20.5353 19.1858 19.6278 19.0915 19.0121 19.5877L19.6397 20.3662ZM20.2493 20.4324L19.4702 21.0592C19.2786 20.8211 19.3093 20.4656 19.5573 20.2657L20.1849 21.0442L20.8125 21.8227C21.4338 21.3219 21.5207 20.4174 21.0285 19.8055L20.2493 20.4324ZM20.1849 21.0442L19.5564 20.2664L17.645 21.8108L18.2735 22.5887L18.902 23.3665L20.8134 21.822L20.1849 21.0442ZM18.2735 22.5887L17.6504 21.8065C17.7504 21.7268 17.8754 21.6846 18.0009 21.6846V22.6846V23.6846C18.318 23.6846 18.6346 23.5795 18.8966 23.3708L18.2735 22.5887Z" fill="#0F0D0D" mask="url(#path-13-inside-7_3136_41828)"/>
<mask id="path-15-inside-8_3136_41828" fill="white">
<path fill-rule="evenodd" clip-rule="evenodd" d="M18.0008 25.0691C17.9049 25.0691 17.8091 25.0377 17.7282 24.9732L15.8168 23.4287C15.6301 23.2783 15.6003 23.0038 15.7507 22.8169C15.901 22.63 16.1752 22.6003 16.3619 22.7508L18.275 24.2952C18.4617 24.4457 18.4914 24.7202 18.3394 24.907C18.2535 25.0129 18.128 25.0691 18.0008 25.0691Z"/>
</mask>
<path fill-rule="evenodd" clip-rule="evenodd" d="M18.0008 25.0691C17.9049 25.0691 17.8091 25.0377 17.7282 24.9732L15.8168 23.4287C15.6301 23.2783 15.6003 23.0038 15.7507 22.8169C15.901 22.63 16.1752 22.6003 16.3619 22.7508L18.275 24.2952C18.4617 24.4457 18.4914 24.7202 18.3394 24.907C18.2535 25.0129 18.128 25.0691 18.0008 25.0691Z" fill="#0F0D0D"/>
<path d="M17.7282 24.9732L17.0997 25.751L17.1051 25.7553L17.7282 24.9732ZM15.8168 23.4287L16.4452 22.6509L16.4443 22.6502L15.8168 23.4287ZM15.7507 22.8169L16.5298 23.4438L16.5298 23.4438L15.7507 22.8169ZM16.3619 22.7508L16.9901 21.9727L16.9895 21.9722L16.3619 22.7508ZM18.275 24.2952L17.6468 25.0733L17.6474 25.0738L18.275 24.2952ZM18.3394 24.907L17.5637 24.276L17.563 24.2768L18.3394 24.907ZM18.0008 25.0691V24.0691C18.1262 24.0691 18.2512 24.1113 18.3513 24.191L17.7282 24.9732L17.1051 25.7553C17.367 25.964 17.6837 26.0691 18.0008 26.0691V25.0691ZM17.7282 24.9732L18.3567 24.1954L16.4452 22.6509L15.8168 23.4287L15.1883 24.2066L17.0997 25.751L17.7282 24.9732ZM15.8168 23.4287L16.4443 22.6502C16.687 22.8458 16.7258 23.2002 16.5298 23.4438L15.7507 22.8169L14.9715 22.19C14.4749 22.8073 14.5732 23.7108 15.1892 24.2073L15.8168 23.4287ZM15.7507 22.8169L16.5298 23.4438C16.3343 23.6868 15.9786 23.7262 15.7344 23.5293L16.3619 22.7508L16.9895 21.9722C16.3719 21.4744 15.4678 21.5733 14.9715 22.1901L15.7507 22.8169ZM16.3619 22.7508L15.7338 23.5288L17.6468 25.0733L18.275 24.2952L18.9032 23.5171L16.9901 21.9727L16.3619 22.7508ZM18.275 24.2952L17.6474 25.0738C17.4044 24.8779 17.3647 24.5206 17.5637 24.276L18.3394 24.907L19.1152 25.5381C19.6181 24.9198 19.519 24.0135 18.9026 23.5167L18.275 24.2952ZM18.3394 24.907L17.563 24.2768C17.6716 24.1431 17.834 24.0691 18.0008 24.0691V25.0691V26.0691C18.4219 26.0691 18.8355 25.8827 19.1158 25.5373L18.3394 24.907Z" fill="#0F0D0D" mask="url(#path-15-inside-8_3136_41828)"/>
<mask id="path-17-inside-9_3136_41828" fill="white">
<path fill-rule="evenodd" clip-rule="evenodd" d="M18.0009 25.0694C17.8737 25.0694 17.7481 25.0132 17.6622 24.9073C17.5119 24.7205 17.54 24.446 17.7266 24.2955L19.6397 22.751C19.8264 22.6006 20.1006 22.6287 20.2493 22.8172C20.3997 23.004 20.3716 23.2785 20.1849 23.429L18.2735 24.9735C18.1925 25.038 18.0967 25.0694 18.0009 25.0694Z"/>
</mask>
<path fill-rule="evenodd" clip-rule="evenodd" d="M18.0009 25.0694C17.8737 25.0694 17.7481 25.0132 17.6622 24.9073C17.5119 24.7205 17.54 24.446 17.7266 24.2955L19.6397 22.751C19.8264 22.6006 20.1006 22.6287 20.2493 22.8172C20.3997 23.004 20.3716 23.2785 20.1849 23.429L18.2735 24.9735C18.1925 25.038 18.0967 25.0694 18.0009 25.0694Z" fill="#0F0D0D"/>
<path d="M17.6622 24.9073L16.8831 25.5342L16.8858 25.5375L17.6622 24.9073ZM17.7266 24.2955L18.3543 25.074L18.3548 25.0736L17.7266 24.2955ZM19.6397 22.751L19.0121 21.9725L19.0116 21.973L19.6397 22.751ZM20.2493 22.8172L19.4642 23.4365L19.4702 23.444L20.2493 22.8172ZM20.1849 23.429L19.5573 22.6505L19.5564 22.6512L20.1849 23.429ZM18.2735 24.9735L18.8966 25.7556L18.902 25.7513L18.2735 24.9735ZM18.0009 25.0694V24.0694C18.1676 24.0694 18.33 24.1433 18.4386 24.2771L17.6622 24.9073L16.8858 25.5375C17.1662 25.883 17.5798 26.0694 18.0009 26.0694V25.0694ZM17.6622 24.9073L18.4414 24.2805C18.633 24.5186 18.6022 24.8741 18.3543 25.074L17.7266 24.2955L17.099 23.517C16.4777 24.0178 16.3908 24.9223 16.8831 25.5342L17.6622 24.9073ZM17.7266 24.2955L18.3548 25.0736L20.2679 23.5291L19.6397 22.751L19.0116 21.973L17.0985 23.5174L17.7266 24.2955ZM19.6397 22.751L20.2673 23.5296C20.0296 23.7212 19.6671 23.6938 19.4642 23.4365L20.2493 22.8172L21.0345 22.1979C20.5341 21.5636 19.6232 21.48 19.0121 21.9725L19.6397 22.751ZM20.2493 22.8172L19.4702 23.444C19.2786 23.2059 19.3093 22.8504 19.5573 22.6505L20.1849 23.429L20.8125 24.2075C21.4338 23.7067 21.5207 22.8022 21.0285 22.1903L20.2493 22.8172ZM20.1849 23.429L19.5564 22.6512L17.645 24.1956L18.2735 24.9735L18.902 25.7513L20.8134 24.2068L20.1849 23.429ZM18.2735 24.9735L17.6504 24.1913C17.7504 24.1116 17.8754 24.0694 18.0009 24.0694V25.0694V26.0694C18.318 26.0694 18.6346 25.9643 18.8966 25.7556L18.2735 24.9735Z" fill="#0F0D0D" mask="url(#path-17-inside-9_3136_41828)"/>
</svg>
