<svg width="28" height="36" viewBox="0 0 28 36" fill="none" xmlns="http://www.w3.org/2000/svg">
<path d="M1.46886 22.7689C2.46458 25.2535 4.54317 27.7621 7.64971 30.2264C10.1169 32.184 12.5887 33.599 14.0102 34.3472C16.0541 33.3433 17.5738 32.4386 18.7741 31.5123C21.855 29.1353 23.1851 27.5015 24.4712 25.9216C24.6778 25.6682 24.8834 25.4149 25.0946 25.1615C26.1773 23.8588 26.475 22.7593 26.5311 22.5119V7.55748C21.8754 6.80814 17.4977 4.80752 14.0695 1.86515C12.3737 3.65424 9.51506 5.02742 7.30993 5.89388C5.01955 6.7938 2.77571 7.39853 1.46886 7.59214V22.7689ZM13.9999 36C13.891 36 13.782 35.9737 13.6814 35.9223C11.1244 34.6065 2.58496 29.8045 0.0550435 23.2242C0.0187948 23.1298 0 23.0282 0 22.9266V6.87387C0 6.44004 0.328808 6.08869 0.734368 6.08869C2.46614 6.08869 10.8956 3.62197 13.43 0.289997C13.555 0.126266 13.7367 0.0222893 13.934 0.00317001C14.1324 -0.0159531 14.3275 0.0521622 14.4779 0.189602C16.4703 2.01335 20.7928 5.20669 27.3579 6.09586C27.7249 6.14486 28 6.47829 28 6.87387V22.5944C28 22.6374 27.9968 22.6805 27.9902 22.7223C27.98 22.788 27.7224 24.3632 26.1928 26.2025C25.9849 26.4534 25.7828 26.7008 25.5796 26.9506C24.2387 28.5987 22.8523 30.3017 19.6342 32.7839C18.2916 33.8201 16.5975 34.8192 14.3029 35.9295C14.2066 35.9761 14.1032 36 13.9999 36Z" fill="#0F0D0D"/>
<path d="M13.1001 23.9998C12.929 23.9998 12.7556 23.9606 12.597 23.8783C12.1175 23.6288 11.9545 23.0801 12.2329 22.6504L14.7523 18.7694H11.504C11.1437 18.7694 10.811 18.597 10.6322 18.3175C10.4534 18.0379 10.4562 17.6931 10.6392 17.4161L13.9198 12.4419C14.2014 12.0147 14.8167 11.8723 15.2946 12.1244C15.7721 12.3765 15.9309 12.9265 15.6493 13.3536L13.2617 16.9746H16.496C16.8552 16.9746 17.187 17.1457 17.3661 17.424C17.5453 17.7022 17.5446 18.0458 17.3643 18.3227L13.9694 23.553C13.783 23.8391 13.4462 23.9998 13.1001 23.9998Z" fill="#0F0D0D"/>
<path d="M14.0001 11.3025C10.4093 11.3025 7.48801 14.3072 7.48801 18.001C7.48801 21.6936 10.4093 24.6983 14.0001 24.6983C17.591 24.6983 20.5123 21.6936 20.5123 18.001C20.5123 14.3072 17.591 11.3025 14.0001 11.3025ZM14.0001 26.4004C9.49708 26.4004 5.8335 22.6322 5.8335 18.001C5.8335 13.3686 9.49708 9.60039 14.0001 9.60039C18.5032 9.60039 22.1668 13.3686 22.1668 18.001C22.1668 22.6322 18.5032 26.4004 14.0001 26.4004Z" fill="#0F0D0D"/>
</svg>
