<svg width="28" height="34" viewBox="0 0 28 34" fill="none" xmlns="http://www.w3.org/2000/svg">
<path d="M13.9994 34C13.8909 34 13.7813 33.9752 13.6806 33.9266C11.1241 32.6839 2.58441 28.1486 0.0548252 21.9337C0.017905 21.8445 0 21.7497 0 21.6527V6.49135C0 6.08274 0.32892 5.7509 0.733923 5.7509C2.46581 5.7509 10.8948 3.42003 13.43 0.273087C13.5542 0.118446 13.7365 0.0202637 13.9334 0.00333405C14.1326 -0.0158539 14.3273 0.0484848 14.4772 0.178288C16.4697 1.90075 20.7927 4.91675 27.3578 5.75654C27.7248 5.80282 28 6.11886 28 6.49135V21.3389C28 21.419 27.9866 21.498 27.962 21.5737C27.9452 21.6256 27.5223 22.8785 26.2402 24.6867C26.0041 25.0197 25.5454 25.0965 25.2165 24.8583C24.8864 24.6201 24.8103 24.1573 25.0464 23.8244C25.9873 22.4981 26.4102 21.5149 26.531 21.2057V7.137C21.8746 6.42928 17.4979 4.54088 14.0688 1.76191C12.3738 3.45051 9.51419 4.74744 7.30906 5.56578C5.01889 6.41685 2.77571 6.98799 1.46896 7.16972V21.5037C2.46469 23.8503 4.54229 26.2196 7.64917 28.547C10.1161 30.3959 12.5875 31.7324 14.0095 32.439C15.7358 31.633 17.3446 30.7278 18.7957 29.7469C19.1325 29.5189 19.5889 29.6103 19.8138 29.9501C20.0398 30.2898 19.9492 30.7504 19.6124 30.9784C18.0081 32.0631 16.2214 33.0575 14.3026 33.9334C14.2064 33.9774 14.1024 34 13.9994 34Z" fill="#0F0D0D"/>
<path d="M13.7959 29.5215C13.5788 29.5215 13.364 29.4301 13.2119 29.2506C12.0383 27.8701 8.91458 21.1214 15.0567 13.3217C15.3208 12.9865 15.8041 12.93 16.1375 13.1964C16.4698 13.4639 16.5257 13.9516 16.2606 14.2868C10.8288 21.1846 13.4412 27.1376 14.3788 28.2415C14.6562 28.5666 14.6182 29.0564 14.296 29.3352C14.1505 29.4605 13.9726 29.5215 13.7959 29.5215Z" fill="#0F0D0D"/>
<path d="M12.1455 23.9824C11.7987 23.9824 11.4843 23.7454 11.3982 23.391C11.2975 22.9745 11.5503 22.5546 11.9632 22.453C16.6453 21.2994 19.4155 19.2157 19.9749 16.4277C20.626 13.1871 18.2407 9.56723 16.2728 7.92716C13.5452 8.71277 9.26354 10.6621 8.45353 15.2617C7.99706 17.8522 8.88649 20.086 9.67524 20.6391C10.0232 20.884 10.1094 21.3671 9.86657 21.7193C9.62491 22.0703 9.14493 22.1573 8.79699 21.9134C7.45108 20.9687 6.38824 18.1209 6.93868 14.9908C7.36718 12.5607 9.14493 8.2037 16.2481 6.32547C16.4741 6.26678 16.7147 6.31306 16.9015 6.45415C19.3002 8.25224 22.3064 12.6306 21.483 16.7359C21.1563 18.3635 20.2736 19.7891 18.8583 20.9743C17.3121 22.269 15.1148 23.2736 12.3279 23.9598C12.2664 23.9756 12.206 23.9824 12.1455 23.9824Z" fill="#0F0D0D"/>
<path d="M21.3287 30.0684C21.1978 30.0684 21.0658 30.0345 20.9438 29.9634C20.5768 29.7478 20.4515 29.2737 20.6652 28.9024L21.5893 27.2962H20.5791C20.3039 27.2962 20.0488 27.1472 19.9112 26.9056C19.7747 26.6629 19.7769 26.3661 19.9167 26.1268L21.4585 23.4889C21.6744 23.1198 22.1454 22.9968 22.5112 23.2146C22.8771 23.4325 22.999 23.9088 22.7831 24.2779L21.9261 25.7441H22.9252C23.2004 25.7441 23.4544 25.8931 23.592 26.1336C23.7285 26.374 23.7285 26.6697 23.5898 26.9101L21.9944 29.6823C21.8523 29.9295 21.5938 30.0684 21.3287 30.0684Z" fill="#0F0D0D"/>
<path d="M21.7516 22.7978C19.6807 22.7978 17.9947 24.4988 17.9947 26.5893C17.9947 28.6786 19.6807 30.3796 21.7516 30.3796C23.8236 30.3796 25.5096 28.6786 25.5096 26.5893C25.5096 24.4988 23.8236 22.7978 21.7516 22.7978ZM21.7516 31.9316C18.8327 31.9316 16.4564 29.5342 16.4564 26.5893C16.4564 23.6433 18.8327 21.2469 21.7516 21.2469C24.6716 21.2469 27.048 23.6433 27.048 26.5893C27.048 29.5342 24.6716 31.9316 21.7516 31.9316Z" fill="#0F0D0D"/>
</svg>
