<svg width="28" height="28" viewBox="0 0 28 28" fill="none" xmlns="http://www.w3.org/2000/svg">
<path d="M3.06367 1.31314C2.09815 1.31314 1.31314 2.09817 1.31314 3.06369V24.9363C1.31314 25.9018 2.09815 26.6878 3.06367 26.6878H24.9363C25.9018 26.6878 26.6878 25.9018 26.6878 24.9363V3.06369C26.6878 2.09817 25.9018 1.31314 24.9363 1.31314H3.06367ZM24.9363 28H3.06367C1.37425 28 0 26.6257 0 24.9363V3.06369C0 1.37427 1.37425 0 3.06367 0H24.9363C26.6257 0 28 1.37427 28 3.06369V24.9363C28 26.6257 26.6257 28 24.9363 28Z" fill="#0F0D0D"/>
<path d="M13.3549 17.0781C13.2431 17.0781 13.1295 17.0495 13.0254 16.9893C12.7121 16.8069 12.6052 16.4058 12.7876 16.0916L14.6508 12.8828H12.2089C11.9739 12.8828 11.7562 12.7567 11.6397 12.5514C11.5222 12.347 11.5241 12.0958 11.6435 11.8924L13.9976 7.90237C14.1819 7.59008 14.584 7.48599 14.8962 7.67031C15.2085 7.85367 15.3126 8.25668 15.1283 8.56897L13.3587 11.5696H15.7911C16.0251 11.5696 16.2428 11.6947 16.3593 11.8981C16.4768 12.1016 16.4758 12.3527 16.3584 12.5552L13.9231 16.7506C13.8009 16.9607 13.5812 17.0781 13.3549 17.0781Z" fill="#0F0D0D"/>
<path d="M14.0004 6.07289C10.5509 6.07289 7.74505 8.87872 7.74505 12.3273C7.74505 15.7768 10.5509 18.5826 14.0004 18.5826C17.4489 18.5826 20.2548 15.7768 20.2548 12.3273C20.2548 8.87872 17.4489 6.07289 14.0004 6.07289ZM14.0004 19.8948C9.82698 19.8948 6.43286 16.5007 6.43286 12.3273C6.43286 8.15482 9.82698 4.7607 14.0004 4.7607C18.1728 4.7607 21.5669 8.15482 21.5669 12.3273C21.5669 16.5007 18.1728 19.8948 14.0004 19.8948Z" fill="#0F0D0D"/>
<path d="M12.7837 21.8965H3.71397C3.35106 21.8965 3.05786 21.6023 3.05786 21.2394C3.05786 20.8775 3.35106 20.5833 3.71397 20.5833H12.1267V19.2396C12.1267 18.8767 12.4208 18.5836 12.7837 18.5836C13.1457 18.5836 13.4398 18.8767 13.4398 19.2396V21.2394C13.4398 21.6023 13.1457 21.8965 12.7837 21.8965Z" fill="#0F0D0D"/>
<path d="M24.3938 21.8965H15.325C14.9621 21.8965 14.668 21.6023 14.668 21.2394V19.2396C14.668 18.8767 14.9621 18.5836 15.325 18.5836C15.687 18.5836 15.9811 18.8767 15.9811 19.2396V20.5833H24.3938C24.7567 20.5833 25.0509 20.8775 25.0509 21.2394C25.0509 21.6023 24.7567 21.8965 24.3938 21.8965Z" fill="#0F0D0D"/>
</svg>
