<svg width="38" height="48" viewBox="0 0 38 48" fill="none" xmlns="http://www.w3.org/2000/svg">
<path d="M19.9017 1.34501C19.6 1.33048 19.2997 1.32257 18.9966 1.32257L18.575 1.32786L18.5433 0.00772476L18.9993 0.00244141C19.3231 0.00244141 19.6496 0.0103512 19.972 0.0261936L19.9017 1.34501ZM15.9393 1.57603L15.7023 0.275717C16.168 0.197828 16.6406 0.135763 17.12 0.0908775L17.2537 1.4044C16.81 1.44665 16.3733 1.50342 15.9393 1.57603ZM22.5291 1.66186C22.0993 1.57869 21.6639 1.51003 21.2216 1.45591L21.3939 0.146313C21.8706 0.204399 22.3418 0.278351 22.8047 0.36944L22.5291 1.66186ZM13.3739 2.20045L12.9358 0.948965C13.385 0.803749 13.841 0.674385 14.3053 0.562174L14.6442 1.84005C14.2144 1.94567 13.7914 2.06579 13.3739 2.20045ZM25.0752 2.35493C24.6633 2.20971 24.2445 2.07899 23.816 1.96282L24.1921 0.692867C24.6536 0.818279 25.1083 0.958208 25.5519 1.11662L25.0752 2.35493ZM10.9367 3.1879L10.307 2.01432C10.7286 1.80574 11.1598 1.61298 11.5994 1.43344L12.1367 2.64931C11.7303 2.81565 11.3293 2.99384 10.9367 3.1879ZM27.4877 3.40839C27.1019 3.20509 26.7079 3.01498 26.3042 2.83808L26.8746 1.63675C27.31 1.82685 27.7371 2.03281 28.1518 2.25327L27.4877 3.40839ZM8.68264 4.51464L7.8753 3.44536C8.25969 3.17869 8.65647 2.92522 9.06153 2.68628L9.78347 3.811C9.40734 4.03279 9.03948 4.26778 8.68264 4.51464ZM29.7073 4.79717C29.3559 4.53975 28.995 4.29419 28.6243 4.06317L29.378 2.9582C29.7775 3.20771 30.166 3.47173 30.5449 3.74896L29.7073 4.79717ZM6.65597 6.15163L5.69291 5.20771C6.03322 4.88956 6.38591 4.58198 6.74689 4.28891L7.63829 5.29615C7.30074 5.56942 6.97147 5.8546 6.65597 6.15163ZM31.6816 6.48691C31.3757 6.18196 31.0575 5.88891 30.7282 5.60772L31.6458 4.62158C32.0012 4.92653 32.3443 5.24336 32.675 5.57339L31.6816 6.48691ZM4.9076 8.05921L3.80815 7.26449C4.0961 6.89881 4.39642 6.54502 4.70917 6.20442L5.74525 7.07308C5.45454 7.39123 5.17488 7.72126 4.9076 8.05921ZM33.3749 8.4394C33.12 8.09484 32.8513 7.75954 32.5689 7.43347L33.6284 6.59121C33.9329 6.94237 34.2236 7.30408 34.4991 7.67768L33.3749 8.4394ZM3.47471 10.1978L2.26503 9.56812C2.49098 9.1668 2.73347 8.77341 2.98835 8.39057L4.15121 9.10078C3.91286 9.45722 3.68688 9.8229 3.47471 10.1978ZM34.7416 10.6123C34.5432 10.2334 34.331 9.86382 34.1037 9.50211L35.2817 8.82093C35.5283 9.21037 35.7598 9.61035 35.9733 10.0196L34.7416 10.6123ZM2.39594 12.516L1.09945 12.0684C1.26203 11.6381 1.43839 11.2143 1.63266 10.7985L2.89054 11.3371C2.71143 11.7226 2.54612 12.116 2.39594 12.516ZM35.7556 12.9569C35.6165 12.5529 35.4635 12.1556 35.2954 11.7661L36.5685 11.2605C36.7504 11.6817 36.9143 12.1094 37.0631 12.545L35.7556 12.9569ZM1.69327 14.9622L0.343061 14.7087C0.433993 14.2585 0.542851 13.8137 0.668227 13.3754L1.99775 13.7265C1.88064 14.1318 1.78007 14.5437 1.69327 14.9622ZM36.3853 15.4203C36.3122 15.0005 36.2241 14.5859 36.1194 14.178L37.4558 13.8625C37.5701 14.3034 37.6666 14.7523 37.7437 15.2051L36.3853 15.4203ZM1.38603 17.4836L0.00827463 17.4255C0.028941 16.9661 0.0675304 16.5107 0.124019 16.0618L1.49075 16.2176C1.43977 16.6348 1.40395 17.0559 1.38603 17.4836ZM36.6222 17.9496C36.614 17.5219 36.5905 17.0995 36.552 16.6797L37.9242 16.5622C37.9669 17.0123 37.9917 17.4678 38 17.9272L36.6222 17.9496ZM0.0978156 20.1609C0.0482162 19.7094 0.0151554 19.2526 0 18.7932L1.37776 18.7549C1.39016 19.1813 1.42049 19.6024 1.46733 20.0209L0.0978156 20.1609ZM37.8319 20.6599L36.4679 20.4843C36.5258 20.0671 36.5685 19.646 36.5933 19.2183L37.9683 19.2962C37.9408 19.7556 37.8953 20.2097 37.8319 20.6599ZM0.613096 22.8513C0.493231 22.413 0.389899 21.9681 0.3031 21.518L1.65607 21.275C1.73874 21.6948 1.83381 22.1094 1.94541 22.516L0.613096 22.8513ZM37.2395 23.3384L35.9154 22.9701C36.0394 22.5648 36.1483 22.1543 36.2406 21.7371L37.5881 22.0104C37.4888 22.4592 37.3717 22.9028 37.2395 23.3384ZM1.54446 25.4361C1.35571 25.0189 1.18211 24.5925 1.0278 24.1595L2.32981 23.7305C2.47448 24.1318 2.6343 24.5265 2.80927 24.912L1.54446 25.4361ZM36.2309 25.9008L34.9813 25.345C35.166 24.9622 35.3382 24.5714 35.4966 24.1727L36.7848 24.6401C36.6167 25.0678 36.4307 25.4889 36.2309 25.9008ZM2.87264 27.8599C2.61913 27.4731 2.38076 27.077 2.16032 26.6704L3.38241 26.0605C3.58632 26.4341 3.80676 26.8011 4.0396 27.1589L2.87264 27.8599ZM34.8312 28.2876L33.6848 27.5576C33.9301 27.2038 34.1602 26.8421 34.3779 26.4724L35.5779 27.1206C35.3437 27.5193 35.0957 27.9087 34.8312 28.2876ZM4.56316 30.0632C4.25454 29.7173 3.95829 29.3595 3.67585 28.9912L4.78771 28.211C5.04811 28.5516 5.32228 28.883 5.61023 29.2051L4.56316 30.0632ZM33.0759 30.4473L32.055 29.5602C32.3512 29.2473 32.6364 28.9226 32.9092 28.5886L33.9962 29.3991C33.7028 29.7595 33.3955 30.1094 33.0759 30.4473ZM31.7092 31.7516L30.786 30.7721L31.1291 30.4685L32.0756 31.4256L31.7092 31.7516ZM6.5788 32.0024C6.22059 31.7041 5.87066 31.3926 5.5331 31.0691L6.51129 30.1371C6.82267 30.4381 7.14507 30.7259 7.48124 31.0031L6.5788 32.0024Z" fill="#E8040F"/>
<path d="M19.5134 48.0024H18.4863V33.0024H19.5134V48.0024Z" fill="#E8040F"/>
<path d="M28.1332 34.316C26.6641 34.316 23.6749 34.5531 21.8533 36.3279C20.4313 37.7112 19.9713 39.7847 19.8367 41.2792C19.8017 41.6617 19.943 42.0389 20.2228 42.3114C20.5026 42.5838 20.8861 42.7188 21.2816 42.6873C22.8179 42.555 24.9462 42.1071 26.3682 40.7238C28.3242 38.8193 28.4614 35.6049 28.4305 34.3186C28.3404 34.3173 28.2408 34.316 28.1332 34.316ZM21.1632 44.0024C20.4569 44.0024 19.7775 43.73 19.2717 43.2375C18.7094 42.6899 18.4269 41.9341 18.4968 41.1653C18.6515 39.4533 19.1937 37.0641 20.9022 35.4019C23.8323 32.5463 28.9256 33.0244 29.1408 33.0441L29.683 33.0991L29.7395 33.6283C29.7623 33.8379 30.252 38.7944 27.3193 41.6499C25.6121 43.3121 23.1569 43.8413 21.3999 43.992C21.3206 43.9985 21.2425 44.0024 21.1632 44.0024Z" fill="#E8040F"/>
<path d="M20.4494 43.0024L19.5137 42.0914L28.8469 33.0024L29.7839 33.9135L20.4494 43.0024Z" fill="#E8040F"/>
<path d="M25.6755 38.0024H24.6484V34.0024H25.6755V38.0024Z" fill="#E8040F"/>
<path d="M21.5685 41.0024H20.5415V36.0024H21.5685V41.0024Z" fill="#E8040F"/>
<path d="M28.7473 40.0024L23.6206 39.9799L23.629 39.0024L28.7557 39.0249L28.7473 40.0024Z" fill="#E8040F"/>
<path d="M9.57042 34.3186C9.53948 35.6049 9.67668 38.8193 11.6327 40.7238C13.0547 42.1071 15.183 42.555 16.7193 42.6873C17.1081 42.7175 17.4969 42.5838 17.7781 42.3114C18.0579 42.0389 18.1992 41.6617 18.1642 41.2792C18.0297 39.7847 17.5696 37.7112 16.1476 36.3279C14.1915 34.4234 10.8942 34.2924 9.57042 34.3186ZM16.8377 44.0024C16.7584 44.0024 16.6803 43.9985 16.601 43.992C14.8427 43.8413 12.3888 43.3121 10.6816 41.6499C7.74889 38.7944 8.23858 33.8379 8.26145 33.6283L8.31794 33.0991L8.8601 33.0441C9.07669 33.0244 14.1673 32.5463 17.0987 35.4019C18.8072 37.0641 19.3494 39.4533 19.5041 41.1653C19.5741 41.9341 19.2915 42.6899 18.7292 43.2375C18.2234 43.73 17.544 44.0024 16.8377 44.0024Z" fill="#E8040F"/>
<path d="M17.5518 43.0024L8.21729 33.9135L9.15309 33.0024L18.4876 42.0914L17.5518 43.0024Z" fill="#E8040F"/>
<path d="M13.3512 38.0024H12.3242V34.0024H13.3512V38.0024Z" fill="#E8040F"/>
<path d="M17.4577 41.0024H16.4307V36.0024H17.4577V41.0024Z" fill="#E8040F"/>
<path d="M10.2774 40.0024L10.269 39.0249L15.3958 39.0024L15.4042 39.9799L10.2774 40.0024Z" fill="#E8040F"/>
<path d="M19.5178 13.8806C17.1805 13.8806 15.2783 15.7274 15.2783 17.9978C15.2783 20.2735 17.1805 22.1256 19.5178 22.1256C21.8524 22.1256 23.7505 20.2735 23.7505 17.9978C23.7505 15.7274 21.8524 13.8806 19.5178 13.8806ZM19.5178 23.4494C16.4299 23.4494 13.9186 21.0043 13.9186 17.9978C13.9186 14.9979 16.4299 12.5567 19.5178 12.5567C22.6016 12.5567 25.1102 14.9979 25.1102 17.9978C25.1102 21.0043 22.6016 23.4494 19.5178 23.4494ZM13.4957 26.2441L13.9539 26.5274C14.9628 27.1496 16.0533 27.5931 17.1941 27.8473L17.7244 27.9651L17.7135 30.8233C17.7121 31.0497 17.8019 31.2629 17.9664 31.4244C18.1296 31.5832 18.3457 31.672 18.5769 31.672L20.373 31.6786C20.8503 31.6786 21.2419 31.3026 21.2419 30.8406L21.25 27.9757L21.7803 27.8606C22.9265 27.609 24.0184 27.1708 25.0246 26.5565L25.4855 26.2746L27.559 28.308C27.8976 28.6363 28.4524 28.6364 28.7964 28.3041L30.0568 27.0755C30.2254 26.914 30.3151 26.7009 30.3151 26.4745C30.3151 26.2521 30.2254 26.0429 30.0623 25.8867L27.9942 23.8506L28.2824 23.4058C28.9174 22.4248 29.3702 21.3631 29.6299 20.2484L29.7495 19.7321L32.6878 19.74C33.1651 19.74 33.5567 19.3601 33.558 18.8941V17.1466C33.558 16.6832 33.1719 16.3059 32.696 16.3059L29.7604 16.2953L29.6407 15.783C29.377 14.6577 28.9242 13.596 28.2947 12.6269L28.005 12.1794L30.0826 10.1526C30.2499 9.9911 30.341 9.77795 30.341 9.55157C30.3423 9.32652 30.2513 9.11603 30.0881 8.95849L28.8208 7.7207C28.4809 7.39106 27.9289 7.38708 27.5917 7.71672L25.5086 9.7422L25.049 9.46023C24.0578 8.84729 22.9687 8.40778 21.813 8.15095L21.284 8.03311V5.17356C21.284 4.70624 20.8925 4.3263 20.4111 4.3263H18.6217C18.1404 4.3263 17.7502 4.70624 17.7502 5.17356V8.03444L17.2186 8.15095C16.105 8.39586 15.0308 8.82611 14.0273 9.42979L13.5677 9.70649L11.501 7.67832C11.3351 7.51549 11.1149 7.42545 10.8783 7.42545C10.6498 7.42545 10.4364 7.51151 10.2759 7.66905L8.99507 8.90024C8.8319 9.05778 8.74218 9.2696 8.73946 9.49598C8.7381 9.72368 8.82649 9.9355 8.98966 10.0944L11.0564 12.1318L10.764 12.5766C10.1291 13.5443 9.67356 14.6034 9.40706 15.7234L9.2847 16.2397L6.34774 16.2278C6.16418 16.2649 5.89768 16.3112 5.73451 16.4687C5.56999 16.6289 5.47754 16.8434 5.47754 17.0724L5.46665 18.8212C5.46394 19.2846 5.85419 19.6659 6.33416 19.6698L9.26432 19.6791L9.38259 20.1941C9.64366 21.3234 10.0937 22.3837 10.7205 23.3462L11.0115 23.795L8.92031 25.8218C8.75715 25.9794 8.66603 26.1912 8.66603 26.4162C8.66603 26.6413 8.75715 26.8544 8.92031 27.016L10.1794 28.2537C10.3439 28.4153 10.5642 28.5053 10.798 28.5053H10.7994C11.0292 28.5053 11.2454 28.4179 11.4085 28.2604L13.4957 26.2441ZM20.3703 33.0024L18.5742 32.9958C17.9827 32.9958 17.4239 32.7694 17.0024 32.3577C16.5822 31.9447 16.3511 31.3979 16.3538 30.8167L16.3592 29.007C15.4333 28.7555 14.5399 28.3901 13.6928 27.9188L12.3671 29.1977C11.9497 29.6041 11.3922 29.8292 10.7994 29.8292C10.798 29.8292 10.7967 29.8292 10.7953 29.8292C10.197 29.8292 9.6355 29.6001 9.21399 29.1844L7.95491 27.9479C7.53612 27.5375 7.30497 26.9921 7.30633 26.4136C7.30769 25.8337 7.54021 25.2909 7.96172 24.8832L9.28878 23.5964C8.81425 22.7822 8.4444 21.9124 8.18877 21.0003L6.32735 20.9937C5.09547 20.9844 4.10152 20.0061 4.10696 18.8133L4.11784 17.0671C4.11784 16.4873 4.35173 15.9392 4.77731 15.5288C5.20018 15.1211 5.79435 14.9331 6.3559 14.9039L8.21732 14.9119C8.47974 14.0037 8.85366 13.1353 9.33499 12.3198L8.02426 11.0264C7.60547 10.6173 7.37704 10.0692 7.38112 9.48803C7.38384 8.9095 7.61772 8.36539 8.03923 7.95897L9.31597 6.73042C9.72796 6.32664 10.2868 6.10159 10.8783 6.10159C11.4792 6.10159 12.0435 6.33063 12.4664 6.745L13.7799 8.03576C14.6134 7.58168 15.489 7.23087 16.3905 6.9886V5.17356C16.3905 3.97547 17.3912 3.00244 18.6217 3.00244H20.4111C21.6417 3.00244 22.6437 3.97547 22.6437 5.17356V6.98992C23.5779 7.24146 24.4698 7.60286 25.3074 8.06753L26.6304 6.78074C27.4992 5.93744 28.9133 5.9401 29.7822 6.78472L31.0494 8.02118C31.4696 8.42893 31.702 8.97305 31.7007 9.5529C31.7007 10.1341 31.4668 10.6795 31.0426 11.0899L29.7251 12.3754C30.2037 13.1935 30.5749 14.0646 30.8332 14.9754L32.6987 14.982C33.9224 14.9834 34.9177 15.9538 34.9177 17.1466V18.8954C34.9137 20.0922 33.9129 21.0639 32.6851 21.0639L30.8223 21.0586C30.5653 21.9628 30.1928 22.8339 29.7115 23.6586L31.0222 24.9494C31.4396 25.3492 31.6735 25.8933 31.6748 26.4732C31.6748 27.057 31.441 27.6037 31.0154 28.0141L29.755 29.2427C28.8752 30.0873 27.4612 30.0873 26.595 29.2413L25.2775 27.9492C24.4317 28.4152 23.5384 28.7753 22.607 29.0229L22.6016 30.8432C22.6016 32.032 21.6009 33.0024 20.3703 33.0024Z" fill="#E8040F"/>
</svg>
