<svg width="59" height="48" viewBox="0 0 59 48" fill="none" xmlns="http://www.w3.org/2000/svg">
<path d="M12 5.00244H6V3.00244H12V5.00244Z" fill="#E8040F"/>
<path d="M5 5.00244H0V3.00244H5V5.00244Z" fill="#E8040F"/>
<path d="M50 20.0024H48V18.0024H50V20.0024Z" fill="#E8040F"/>
<path d="M59 20.0024H51V18.0024H59V20.0024Z" fill="#E8040F"/>
<path d="M55 25.0024H46V23.0024H55V25.0024Z" fill="#E8040F"/>
<path d="M12 9H0V7H12V9Z" fill="#E8040F"/>
<path d="M51 48.0024H49.581C49.581 37.7186 40.7976 29.354 30.0007 29.354C19.2038 29.354 10.419 37.7186 10.419 48.0024H9C9 36.9739 18.4205 28.0024 30.0007 28.0024C41.5795 28.0024 51 36.9739 51 48.0024Z" fill="#E8040F"/>
<path d="M43 48.0024H41.6398C41.6398 41.1946 39.9925 34.7063 37 29.7365L38.1576 29.0024C41.2793 34.1914 43 40.9392 43 48.0024Z" fill="#E8040F"/>
<path d="M18.3593 48H17C17 40.9437 18.7195 34.1959 21.8432 29L23 29.7341C20.0068 34.7109 18.3593 41.1977 18.3593 48Z" fill="#E8040F"/>
<path d="M31 48.0024H29V28.0024H31V48.0024Z" fill="#E8040F"/>
<path d="M48 39.0024H13V37.0024H48V39.0024Z" fill="#E8040F"/>
<path d="M37.7054 28.0024L36.711 26.9854L45.0338 18.6415C45.1639 18.4827 45.6024 17.9219 45.6038 17.9191C46.8953 16.1424 47.5855 14.0225 47.5855 11.8081C47.5855 6.08766 42.9814 1.43291 37.3235 1.43291C34.5511 1.43291 31.9527 2.54153 30.0064 4.55277L29.5014 5.07488L28.995 4.55277C27.0501 2.54153 24.4517 1.43291 21.6765 1.43291C16.0186 1.43291 11.4145 6.08766 11.4145 11.8081C11.4145 14.4974 12.4357 17.0479 14.2887 18.9948L22.1673 26.9224L21.1701 27.9366L13.2802 19.9975C11.1613 17.7732 10 14.8693 10 11.8081C10 5.29947 15.2392 0.00244331 21.6765 0.00244331C24.6002 0.00244331 27.3528 1.08243 29.5014 3.05934C31.6514 1.08243 34.4026 0.00244331 37.3235 0.00244331C43.7622 0.00244331 49 5.29947 49 11.8081C49 14.33 48.215 16.7432 46.7283 18.7845C46.7142 18.8045 46.2474 19.4053 46.065 19.617L37.7054 28.0024Z" fill="#E8040F"/>
<path d="M29.0034 15.2425C28.0304 15.2425 27.24 16.0315 27.24 17.0004C27.24 17.9734 28.0304 18.7624 29.0034 18.7624C29.9723 18.7624 30.7627 17.9734 30.7627 17.0004C30.7627 16.0315 29.9723 15.2425 29.0034 15.2425ZM29.0034 20.1252C27.2795 20.1252 25.8773 18.7229 25.8773 17.0004C25.8773 15.2793 27.2795 13.8797 29.0034 13.8797C30.7245 13.8797 32.1255 15.2793 32.1255 17.0004C32.1255 18.7229 30.7245 20.1252 29.0034 20.1252ZM25.9631 20.7725L26.421 21.0627C26.8912 21.3612 27.3967 21.5724 27.9241 21.6923L28.4556 21.8136L28.4488 23.547L29.4286 23.6397L29.5212 21.8191L30.0514 21.7005C30.5842 21.5792 31.0911 21.3707 31.5572 21.0777L32.0192 20.7888L33.2429 22.0207L33.9965 21.3912L32.7782 20.0325L33.0685 19.5746C33.3628 19.1099 33.5741 18.6043 33.6926 18.0742L33.8139 17.5414L35.5487 17.5455L35.6373 16.5657H35.6359L35.5487 16.4812L33.818 16.473L33.6981 15.9456C33.5754 15.4101 33.3656 14.9031 33.0739 14.4425L32.7823 13.9805L34.0101 12.7527L33.3833 11.9978L32.0287 13.2242L31.5681 12.9312C31.1061 12.6396 30.6019 12.4297 30.0691 12.3085L29.5376 12.1886V10.4538L28.5564 10.3652L28.4678 12.1886L27.9364 12.3085C27.4172 12.4257 26.9198 12.6301 26.4551 12.9176L25.9931 13.2038L24.7748 11.9732L24.0144 12.6015L25.2341 13.9588L24.9424 14.4166C24.6481 14.88 24.4355 15.3842 24.3128 15.917L24.1902 16.4471L22.4554 16.4403L22.3628 17.4215L24.1807 17.5155L24.3006 18.0443C24.4232 18.5853 24.6317 19.0895 24.9206 19.546L25.2136 20.008L23.979 21.2372L24.6058 21.9921L25.9631 20.7725ZM29.4259 25.0024L28.5333 24.9997C28.149 24.9997 27.7837 24.8471 27.5112 24.5732C27.2359 24.2979 27.0847 23.9313 27.086 23.5416L27.0888 22.8738C26.774 22.7716 26.466 22.6422 26.1676 22.4882L25.6906 22.9624C25.4208 23.2322 25.0569 23.3821 24.6699 23.3821C24.6685 23.3821 24.6672 23.3821 24.6672 23.3821C24.2774 23.3821 23.9122 23.2295 23.6369 22.9515L23.0128 22.3205C22.7389 22.0466 22.589 21.6814 22.5904 21.2944C22.5917 20.9074 22.743 20.5435 23.0169 20.271L23.4952 19.794C23.3453 19.501 23.2172 19.1931 23.1164 18.8755L22.4473 18.8742C21.6432 18.866 20.9973 18.2119 21 17.4147L21.0068 16.5235C21.0068 16.1364 21.1595 15.7698 21.4361 15.4946C21.7127 15.222 22.0507 15.098 22.4663 15.0776L23.1327 15.0789C23.2363 14.7641 23.3644 14.4562 23.5184 14.1618L23.0455 13.6835C22.484 13.1152 22.4881 12.1954 23.055 11.6325L23.6914 11.0043C23.9572 10.7359 24.321 10.586 24.7067 10.5846C24.7081 10.5846 24.7094 10.5846 24.7094 10.5846C25.0991 10.5846 25.4657 10.7372 25.741 11.0125L26.2152 11.4922C26.5041 11.3464 26.8012 11.2237 27.1051 11.1256V10.4538C27.1051 9.65385 27.7565 9.00244 28.5564 9.00244H29.4477C30.2489 9.00244 30.9004 9.65385 30.9004 10.4538V11.1256C31.2165 11.2278 31.5231 11.3546 31.8188 11.5072L32.2944 11.0316C32.8613 10.4701 33.7826 10.4701 34.3454 11.0343L34.9763 11.6652C35.2502 11.9392 35.4015 12.303 35.4015 12.69C35.4001 13.0784 35.2489 13.4436 34.9722 13.7175L34.4994 14.1918C34.652 14.4889 34.7801 14.7968 34.8823 15.1157L35.5555 15.1185C36.3527 15.1198 37 15.7685 37 16.5657V17.4583C36.9945 18.2596 36.3431 18.9083 35.5473 18.9083L34.8768 18.9069C34.7733 19.223 34.6452 19.531 34.4925 19.8295L34.9654 20.3064C35.2352 20.5735 35.3879 20.9374 35.3879 21.3271C35.3879 21.7169 35.2352 22.0834 34.9572 22.3573L34.3345 22.9815C33.7608 23.5484 32.8382 23.547 32.2767 22.9828L31.8025 22.5045C31.504 22.6558 31.1974 22.7825 30.8799 22.8847L30.8785 23.5579C30.8785 24.3524 30.2272 25.0024 29.4259 25.0024Z" fill="#E8040F"/>
</svg>
