<svg width="44" height="48" viewBox="0 0 44 48" fill="none" xmlns="http://www.w3.org/2000/svg">
<path d="M41 41.0024H12V26.3132H13.208V39.7943H39.792V13.2105H25.9226V12.0024H41V41.0024Z" fill="#E8040F"/>
<path d="M33 39.0024H32V12.0024H33V39.0024Z" fill="#E8040F"/>
<path d="M23 39.0024H22V20.0024H23V39.0024Z" fill="#E8040F"/>
<path d="M41 22.0024H22V21.0024H41V22.0024Z" fill="#E8040F"/>
<path d="M41 31.0024H14V30.0024H41V31.0024Z" fill="#E8040F"/>
<path d="M18 47.0024H17V40.0024H18V47.0024Z" fill="#E8040F"/>
<path d="M37 47.0024H36V40.0024H37V47.0024Z" fill="#E8040F"/>
<path d="M44 48.0024H10V47.0024H44V48.0024Z" fill="#E8040F"/>
<path d="M13.9994 3.22732C8.60994 3.22732 4.22488 7.61204 4.22488 13.0015C4.22488 18.3925 8.60994 22.7776 13.9994 22.7776C19.3901 22.7776 23.7751 18.3925 23.7751 13.0015C23.7751 7.61204 19.3901 3.22732 13.9994 3.22732ZM13.9994 24.0024C7.93381 24.0024 3 19.0685 3 13.0015C3 6.93591 7.93381 2.00244 13.9994 2.00244C20.0662 2.00244 25 6.93591 25 13.0015C25 19.0685 20.0662 24.0024 13.9994 24.0024Z" fill="#E8040F"/>
<path d="M15 3.00244H14V0.00244164H15V3.00244Z" fill="#E8040F"/>
<path d="M18.2732 3.00244L17 2.66907L17.7268 0.00244141L19 0.335818L18.2732 3.00244Z" fill="#E8040F"/>
<path d="M19.8976 4.00244L19 3.36436L20.1034 1.00244L21 1.64052L19.8976 4.00244Z" fill="#E8040F"/>
<path d="M22.9575 6.00244L22 5.04614L24.0424 3.00244L25 3.95875L22.9575 6.00244Z" fill="#E8040F"/>
<path d="M24.6408 9.00244L24 8.10932L26.3591 7.00244L27 7.8968L24.6408 9.00244Z" fill="#E8040F"/>
<path d="M25.336 11.0024L25 9.73436L27.6639 9.00244L28 10.2707L25.336 11.0024Z" fill="#E8040F"/>
<path d="M11.2812 26.0024L10 25.6735L10.7188 23.0024L12 23.3309L11.2812 26.0024Z" fill="#E8040F"/>
<path d="M7.90238 25.0024L7 24.3697L8.09762 22.0024L9 22.6352L7.90238 25.0024Z" fill="#E8040F"/>
<path d="M4.96473 24.0024L4 23.0526L6.03527 21.0024L7 21.9521L4.96473 24.0024Z" fill="#E8040F"/>
<path d="M2.64652 21.0024L2 20.1137L4.35348 19.0024L5 19.8912L2.64652 21.0024Z" fill="#E8040F"/>
<path d="M1.34321 18.0024L1 16.7424L3.65679 16.0024L4 17.262L1.34321 18.0024Z" fill="#E8040F"/>
<path d="M0.0112102 14.0024L0 13.0182L2.99019 13.0024L3 13.9867L0.0112102 14.0024Z" fill="#E8040F"/>
<path d="M3.674 12.0024L1 11.2893L1.326 10.0024L4 10.7156L3.674 12.0024Z" fill="#E8040F"/>
<path d="M4.37216 9.00244L2 7.90672L2.62781 7.00244L5 8.09817L4.37216 9.00244Z" fill="#E8040F"/>
<path d="M6.05355 6.00244L4 3.9701L4.94645 3.00244L7 5.03425L6.05355 6.00244Z" fill="#E8040F"/>
<path d="M8.11465 4.00244L7 1.65199L7.88535 1.00244L9 3.3529L8.11465 4.00244Z" fill="#E8040F"/>
<path d="M10.7453 3.00244L10 0.348121L11.2547 0.00244141L12 2.65767L10.7453 3.00244Z" fill="#E8040F"/>
</svg>
