<svg width="60" height="49" viewBox="0 0 60 49" fill="none" xmlns="http://www.w3.org/2000/svg">
<path d="M20.2873 46L19 45.4777L24.7845 32.6368L26.6035 5L28 5.08374L26.118 33.0528L20.2873 46Z" fill="white"/>
<path d="M39.7129 46L33.8285 32.8335L32 5.08374L33.3962 5L35.2164 32.6368L41 45.4777L39.7129 46Z" fill="white"/>
<path d="M19.2138 9.66895H39.7145L32.1979 5.33105H26.3121L19.2138 9.66895ZM42 11H17V9.46396L25.9389 4H32.5525L42 9.45197V11Z" fill="white"/>
<path d="M18 12H17V9H18V12Z" fill="white"/>
<path d="M43 12H42V9H43V12Z" fill="white"/>
<path d="M19.2112 21.6692H39.7171L32.1979 17.3308H26.3121L19.2112 21.6692ZM42 23H17V21.4616L25.9389 16H32.5525L42 21.4509V23Z" fill="white"/>
<path d="M18 23H17V20H18V23Z" fill="white"/>
<path d="M43 23H42V20H43V23Z" fill="white"/>
<path d="M18.1851 32.6692H40.7444L33.2855 28.3308H25.2321L18.1851 32.6692ZM43 34H16V32.4603L24.8709 27H33.631L43 32.4483V34Z" fill="white"/>
<path d="M17 35H16V32H17V35Z" fill="white"/>
<path d="M44 35H43V32H44V35Z" fill="white"/>
<path d="M26.8023 11L26 9.91323L32.1977 4L33 5.08677L26.8023 11Z" fill="white"/>
<path d="M32.1977 11L26 5.08677L26.8023 4L33 9.91323L32.1977 11Z" fill="white"/>
<path d="M26.8023 17L26 15.9133L32.1977 10L33 11.0867L26.8023 17Z" fill="white"/>
<path d="M32.1977 17L26 11.0867L26.8023 10L33 15.9133L32.1977 17Z" fill="white"/>
<path d="M26.8023 22L26 20.9133L32.1977 15L33 16.0868L26.8023 22Z" fill="white"/>
<path d="M32.1977 22L26 16.0868L26.8023 15L33 20.9133L32.1977 22Z" fill="white"/>
<path d="M26.8023 28L26 26.9142L32.1977 21L33 22.0858L26.8023 28Z" fill="white"/>
<path d="M32.1977 28L26 22.0858L26.8023 21L33 26.9142L32.1977 28Z" fill="white"/>
<path d="M26.8023 34L26 32.9145L32.1977 27L33 28.0855L26.8023 34Z" fill="white"/>
<path d="M32.1977 34L26 28.0855L26.8023 27L33 32.9145L32.1977 34Z" fill="white"/>
<path d="M26.9435 5L26 4.12774L29.7637 0L33 4.16646L31.9925 4.96261L29.6856 1.99357L26.9435 5Z" fill="white"/>
<path d="M23.1631 46L22 45.3097L29.8355 33L31 33.6917L23.1631 46Z" fill="white"/>
<path d="M36.8355 46L29 33.6917L30.1631 33L38 45.3097L36.8355 46Z" fill="white"/>
<path d="M57 46H3V45H57V46Z" fill="white"/>
<path d="M42 49H0V48H42V49Z" fill="white"/>
<path d="M60 49H44V48H60V49Z" fill="white"/>
</svg>
