<svg width="48" height="49" viewBox="0 0 48 49" fill="none" xmlns="http://www.w3.org/2000/svg">
<path d="M18.4065 37.4636C13.8848 35.158 11.0761 30.5732 11.0761 25.5029C11.0761 18.0991 17.0972 12.0761 24.4978 12.0761V13.539C17.9033 13.539 12.539 18.9067 12.539 25.5029C12.539 30.0207 15.0419 34.1048 19.0706 36.1614L18.4065 37.4636ZM24.4978 38.9237V37.4608C31.0953 37.4608 36.461 32.0979 36.461 25.5029C36.461 20.5479 33.3481 16.0483 28.7152 14.3031L29.2301 12.9351C34.4306 14.8928 37.9239 19.9439 37.9239 25.5029C37.9239 32.9025 31.9013 38.9237 24.4978 38.9237ZM15.2643 39.0169L15.7558 39.33C17.3357 40.3306 19.0545 41.0461 20.8626 41.4559L21.4346 41.5843L21.4214 45.8725C21.4214 46.785 22.1704 47.5342 23.0891 47.5371H25.8539C26.7726 47.5371 27.5186 46.7954 27.5186 45.8827L27.5244 41.6004L28.092 41.4718C29.9104 41.0581 31.6321 40.3426 33.2062 39.3467L33.7006 39.0335L36.739 42.0701C37.0549 42.3879 37.4733 42.5615 37.9195 42.5615C37.921 42.5615 37.921 42.5615 37.921 42.5615C38.3627 42.5615 38.7782 42.3889 39.0912 42.0758L41.05 40.1157C41.366 39.7997 41.5415 39.3815 41.5415 38.9369C41.5415 38.4951 41.3704 38.0808 41.0573 37.7705L38.0233 34.7265L38.3349 34.2333C39.3326 32.6533 40.0479 30.935 40.4575 29.1251L40.5877 28.5561H44.8724C45.7896 28.5561 46.5371 27.8069 46.5371 26.8879V24.1188C46.5371 23.2016 45.7896 22.4559 44.8724 22.4559H40.5863L40.4575 21.8838C40.0582 20.109 39.3589 18.4169 38.3803 16.8547L38.0702 16.3568L41.1231 13.3431C41.7726 12.6951 41.78 11.6362 41.1378 10.9864L39.1848 9.0115C38.5397 8.36636 37.485 8.36241 36.8297 9.00462L33.7855 12.0197L33.2925 11.7064C31.7126 10.703 29.9967 9.98009 28.1915 9.56477L27.6225 9.43325L27.6356 5.14976C27.6371 4.70065 27.4659 4.28226 27.1529 3.96744C26.8413 3.65482 26.4273 3.48162 25.9855 3.48162L23.2032 3.46289C23.2017 3.46289 23.2003 3.46289 23.1973 3.46289C22.7585 3.46289 22.3416 3.63537 22.0271 3.94858C21.714 4.26178 21.5414 4.6771 21.5414 5.11889L21.5194 9.39961L20.9504 9.52644C19.1379 9.93049 17.4191 10.6401 15.8406 11.6333L15.3447 11.9465L12.3137 8.89783C12.0007 8.58302 11.5837 8.4104 11.1376 8.40923H11.1361C10.6914 8.40923 10.276 8.58185 9.9629 8.8933L7.99096 10.843C7.67499 11.1561 7.50091 11.5745 7.50091 12.0208C7.49945 12.466 7.67208 12.8825 7.98659 13.1939L11.0059 16.2426L10.6929 16.7346C9.69374 18.3038 8.97402 20.0227 8.55564 21.8427L8.42398 22.4119L4.14221 22.3958H4.14074C3.22353 22.3958 2.47308 23.1388 2.47016 24.0559L2.46285 26.8269C2.46285 27.7485 3.20597 28.4989 4.1188 28.4989L8.4035 28.5046L8.53223 29.0755C8.94037 30.8922 9.64984 32.6138 10.6431 34.191L10.9532 34.687L7.91491 37.7139C7.59893 38.0265 7.42339 38.442 7.42193 38.8872C7.42047 39.3347 7.59454 39.7574 7.91198 40.0763L9.86782 42.0324C10.1823 42.3495 10.6314 42.553 11.0425 42.5222C11.4872 42.5222 11.9026 42.3495 12.2157 42.0363L15.2643 39.0169ZM25.8539 49H23.0862C21.36 48.9943 19.9586 47.5896 19.9586 45.8707L19.9688 42.7432C18.3919 42.3307 16.8851 41.7032 15.472 40.8707L13.2485 43.0724C12.6619 43.6604 11.8778 43.9851 11.0425 43.9851C11.041 43.9851 11.0396 43.9851 11.0381 43.9851C10.2013 43.9851 9.41724 43.6575 8.83064 43.065L6.87627 41.1089C6.28235 40.5107 5.95615 39.7209 5.95908 38.8809C5.962 38.0472 6.28967 37.2631 6.88359 36.6751L9.09982 34.4688C8.27477 33.0572 7.65305 31.5464 7.24198 29.9663L4.11733 29.9618C2.39848 29.9618 1 28.5543 1 26.8252L1.0073 24.0531C1.01315 22.3313 2.41896 20.9329 4.14221 20.9329C4.14367 20.9329 4.14514 20.9329 4.1466 20.9329L7.26979 20.9445C7.68963 19.3603 8.32158 17.8535 9.15248 16.4489L6.95088 14.2272C6.36135 13.6402 6.0366 12.8545 6.03806 12.0179C6.03806 11.1813 6.36721 10.3944 6.96113 9.80293L8.93159 7.85611C9.51819 7.27095 10.3008 6.94633 11.1361 6.94633C11.1361 6.94633 11.1376 6.94633 11.139 6.94633C11.9758 6.9475 12.7613 7.27548 13.3509 7.86634L15.5627 10.0916C16.9758 9.26472 18.484 8.64183 20.0624 8.235L20.0785 5.11436C20.0785 4.28519 20.4033 3.50224 20.9943 2.91138C21.5853 2.32505 22.3679 2 23.2003 2C23.2032 2 23.2061 2 23.2105 2L25.9899 2.01873C26.8194 2.01873 27.602 2.34509 28.1901 2.93478C28.7796 3.5274 29.1029 4.31605 29.0985 5.15429L29.0882 8.28005C30.6623 8.69727 32.1661 9.33042 33.5792 10.1659L35.8027 7.96407C37.0257 6.75601 39.0079 6.76171 40.2235 7.98177L42.1764 9.95844C43.3847 11.1785 43.3759 13.1619 42.153 14.3808L39.9251 16.5808C40.734 17.9706 41.344 19.4507 41.7463 20.993H44.8724C46.5971 20.993 48 22.3958 48 24.1188V26.8879C48 28.6143 46.5971 30.019 44.8724 30.019H41.7463C41.3338 31.5961 40.7062 33.1024 39.8768 34.5144L42.0916 36.7363C42.6796 37.3214 43.0044 38.1042 43.0044 38.9381C43.0044 39.7735 42.6767 40.5603 42.0828 41.1511L40.1255 43.1101C39.5374 43.6998 38.7548 44.0244 37.921 44.0244H37.9195C37.0813 44.0244 36.2943 43.697 35.7033 43.1032L33.487 40.8884C32.0768 41.7176 30.5686 42.3438 28.9858 42.7593L28.9814 45.8839C28.9814 47.6016 27.5786 49 25.8539 49Z" fill="white"/>
<path d="M29.0353 24.4331H22.6446L29.0353 10L18.0133 25.4038L16 28.216H19.7062H25.9715L19.7062 41L30.6828 27.3209L33 24.4331H29.0353Z" fill="white"/>
<path d="M1.04161 49L0 47.8753L5.95837 42L7 43.1264L1.04161 49Z" fill="white"/>
<path d="M42.013 7L41 5.90558L46.987 0L48 1.09306L42.013 7Z" fill="white"/>
<path d="M46.0226 49L41 43.0925L41.9788 42L47 47.9071L46.0226 49Z" fill="white"/>
<path d="M5.98827 7L0 1.09306L1.01173 0L7 5.90558L5.98827 7Z" fill="white"/>
</svg>
