<svg width="53" height="48" viewBox="0 0 53 48" fill="none" xmlns="http://www.w3.org/2000/svg">
<path d="M6 45H5V15H6V45Z" fill="white"/>
<path d="M4.01839 44L1 40.9816L1.98161 40L5 43.0184L4.01839 44Z" fill="white"/>
<path d="M7.98226 44L7 43.0184L10.0177 40L11 40.9816L7.98226 44Z" fill="white"/>
<path d="M31 20H30V17H31V20Z" fill="white"/>
<path d="M42 45H40.7722V41.1121L31.7885 20.2935L28.3373 20.2373L20.2278 41.9153V45H19L19.0381 41.5926L27.4913 19L32.6038 19.0844L42 40.9874V45Z" fill="white"/>
<path d="M20.8654 42L20 41.1347L35.1346 26L36 26.8653L20.8654 42Z" fill="white"/>
<path d="M42.1074 42L26 25.8926L26.8926 25L43 41.1074L42.1074 42Z" fill="white"/>
<path d="M46 37H45V21H46V37Z" fill="white"/>
<path d="M49 45H47.7624V37.2339H44.2376V45H43V36H49V45Z" fill="white"/>
<path d="M46.5109 21L15 8.11043L15.489 7L47 19.8896L46.5109 21Z" fill="white"/>
<path d="M28.512 17L14 11.1014L14.488 10L29 15.8998L28.512 17Z" fill="white"/>
<path d="M45.5339 25L32 19.1451L32.4661 18L46 23.8536L45.5339 25Z" fill="white"/>
<path d="M31 25.5C31 25.776 30.7762 26 30.4995 26C30.2238 26 30 25.776 30 25.5C30 25.224 30.2238 25 30.4995 25C30.7762 25 31 25.224 31 25.5Z" fill="white"/>
<path d="M52 46H2V45H52V46Z" fill="white"/>
<path d="M18 48H0V47H18V48Z" fill="white"/>
<path d="M53 48H19V47H53V48Z" fill="white"/>
<path d="M6.33646 15.3798L6.79149 15.5707L12.4431 10.4878L14.6722 5.44262L13.5347 2.082L11.7569 1.33089L8.47481 2.82705L6.2457 7.87102L6.33646 15.3798ZM7.03889 17L5.10195 16.182L5 7.62672L7.52125 1.92036L11.737 0L14.5392 1.18261L16 5.49975L13.383 11.2948L7.03889 17Z" fill="white"/>
<path d="M41 42H20V41H41V42Z" fill="white"/>
<path d="M12.4971 11L5 8.05913L5.5042 7L13 9.94087L12.4971 11Z" fill="white"/>
<path d="M15.4971 6L8 3.05913L8.5042 2L16 4.94087L15.4971 6Z" fill="white"/>
</svg>
